<svg xmlns="http://www.w3.org/2000/svg" width="29.974" height="30.018" viewBox="0 0 29.974 30.018"><g data-name="Group 436" fill="#fff"><path data-name="Path 726" d="M23.702 18.595a2.952 2.952 0 0 0-2.141-.982 3.053 3.053 0 0 0-2.167.976l-2 2c-.165-.089-.329-.171-.488-.253a8.106 8.106 0 0 1-.627-.336 21.759 21.759 0 0 1-5.214-4.752 12.837 12.837 0 0 1-1.711-2.7c.52-.475 1-.969 1.47-1.444.177-.177.355-.361.532-.539a2.907 2.907 0 0 0 0-4.384l-1.73-1.73c-.2-.2-.4-.4-.589-.6-.38-.393-.779-.8-1.191-1.178a3 3 0 0 0-2.122-.931 3.1 3.1 0 0 0-2.154.931l-.014.007-2.155 2.173A4.635 4.635 0 0 0 .027 7.799a11.106 11.106 0 0 0 .811 4.7 27.278 27.278 0 0 0 4.847 8.084 29.814 29.814 0 0 0 9.928 7.774 15.468 15.468 0 0 0 5.575 1.647c.133.006.272.013.4.013a4.774 4.774 0 0 0 3.656-1.571c.006-.013.019-.019.025-.032a14.4 14.4 0 0 1 1.109-1.147c.272-.26.551-.532.824-.817a3.16 3.16 0 0 0 .957-2.192 3.045 3.045 0 0 0-.976-2.173zm2.268 6.671c-.006 0-.006.006 0 0-.247.266-.5.507-.773.773a16.658 16.658 0 0 0-1.223 1.267 3.054 3.054 0 0 1-2.382 1.007c-.1 0-.2 0-.291-.006a13.741 13.741 0 0 1-4.945-1.483A28.142 28.142 0 0 1 7.008 19.5a25.72 25.72 0 0 1-4.561-7.6 9.046 9.046 0 0 1-.71-3.966 2.908 2.908 0 0 1 .874-1.882l2.16-2.16a1.44 1.44 0 0 1 .963-.45 1.355 1.355 0 0 1 .922.448l.019.019c.386.361.754.735 1.14 1.134.2.2.4.405.6.615l1.73 1.73a1.209 1.209 0 0 1 0 1.964c-.184.184-.361.367-.545.545a32.92 32.92 0 0 1-1.59 1.546c-.013.013-.025.019-.032.032a1.292 1.292 0 0 0-.322 1.437l.019.057a13.886 13.886 0 0 0 2.046 3.339l.006.006a23.253 23.253 0 0 0 5.629 5.116 8.65 8.65 0 0 0 .779.424c.228.114.443.222.627.336.025.013.051.032.076.044a1.373 1.373 0 0 0 .627.158 1.355 1.355 0 0 0 .963-.437l2.167-2.167a1.433 1.433 0 0 1 .957-.475 1.29 1.29 0 0 1 .912.462l.013.013 3.491 3.491a1.253 1.253 0 0 1 .002 1.987z"/><path data-name="Path 727" d="M16.201 7.14a8.154 8.154 0 0 1 6.64 6.64.85.85 0 0 0 .843.71 1.133 1.133 0 0 0 .146-.013.856.856 0 0 0 .7-.988 9.859 9.859 0 0 0-8.033-8.033.86.86 0 0 0-.988.7.846.846 0 0 0 .692.984z"/><path data-name="Path 728" d="M29.964 13.242A16.234 16.234 0 0 0 16.733.013a.855.855 0 1 0-.279 1.687 14.5 14.5 0 0 1 11.822 11.82.85.85 0 0 0 .843.71 1.132 1.132 0 0 0 .146-.013.839.839 0 0 0 .699-.975z"/></g></svg>