<svg xmlns="http://www.w3.org/2000/svg" xmlns:xlink="http://www.w3.org/1999/xlink" width="217" height="183" viewBox="0 0 217 183">
  <defs>
    <linearGradient id="linear-gradient" x1="0.5" x2="0.5" y2="1" gradientUnits="objectBoundingBox">
      <stop offset="0" stop-color="#db0000"/>
      <stop offset="1" stop-color="#b40000"/>
    </linearGradient>
    <clipPath id="clip-path">
      <rect id="Rectangle_2863" data-name="Rectangle 2863" width="217" height="183" rx="20" fill="url(#linear-gradient)"/>
    </clipPath>
  </defs>
  <g id="Mask_Group_21" data-name="Mask Group 21" clip-path="url(#clip-path)">
    <path id="Path_1129" data-name="Path 1129" d="M-77.105-80.671a5.492,5.492,0,0,0-4.089-5.051c-3.379-.861-5.543.8-7.062,3.776-.719-2.166-1.6-3.972-3.858-4.575-.01-1.076.977-.714,1.489-.967A5.815,5.815,0,0,0-87.3-93.25a5.772,5.772,0,0,0-5.293-5.06A5.716,5.716,0,0,0-98.253-94.5a5.633,5.633,0,0,0,2.265,6.589c.477.317,1.136.376,1.413.981-2.483.034-3.936,1.572-5.168,3.674a7.5,7.5,0,0,0-1.4-2.986,10.232,10.232,0,0,0-2.624-1.908c3.259-1.45,4.688-3.3,4.643-5.815a5.642,5.642,0,0,0-3.67-5.19c-3.71-1.264-6.045.614-7.736,3.853-1.492-3.663-3.355-5.082-6.163-4.868a5.423,5.423,0,0,0-4.915,4.2c-.621,2.9.469,4.757,4.021,6.87-3.719,1.452-5.256,3.222-5.175,5.961a5.478,5.478,0,0,0,4.088,5.2c-.164.955-1.039.627-1.587.843a5.813,5.813,0,0,0-3.689,5.783,5.99,5.99,0,0,0,5.192,5.257,6.027,6.027,0,0,0,5.748-3.8c1.209-3.278-.472-6.163-4.425-7.6a6.275,6.275,0,0,0,5.92-4.356,6.3,6.3,0,0,0,3.825,4.922c-3.7,1.991-4.912,3.886-4.483,6.882a5.823,5.823,0,0,0,4.708,4.766c2.845.444,4.912-.728,6.623-3.823a6.586,6.586,0,0,0,4.227,4.932c-3.559,1.473-4.159,2.049-5.154,4.839-1.884-4.379-3.776-5.859-6.782-5.3a5.649,5.649,0,0,0-4.738,5.377,5.634,5.634,0,0,0,4.308,5.515c2.986.737,5.207-.592,6.929-4.144,1.815,4,3.6,5.435,6.371,5.117a5.551,5.551,0,0,0,4.878-4.289,5.49,5.49,0,0,0-.628-4.13c-.744-1.347-2.033-2.068-3.79-2.789,3.073-.1,4.676-1.774,5.963-4.007,1.789,3.628,3.84,4.971,6.564,4.512a5.479,5.479,0,0,0,4.677-4.729c.428-2.717-.948-4.768-4.259-6.348C-78.331-76.342-76.927-78.014-77.105-80.671Zm-32.288-6.266a7,7,0,0,0-1.887,2.784c-.937-2.346-2.176-4.116-4.671-4.786a6.5,6.5,0,0,0,5.254-5.088c.627,2.9,1.821,4.71,4.331,5.621A9.748,9.748,0,0,0-109.394-86.937Zm8.894,15.482c-.614-2.444-1.757-4.138-4.079-5.05a6.8,6.8,0,0,0,4.515-3.952,6.523,6.523,0,0,0,4.116,4.807C-97.978-74.823-99.667-73.807-100.5-71.455ZM-89-70.143a11.543,11.543,0,0,0-1.467-3.2,7.15,7.15,0,0,0-2.82-1.979,7.5,7.5,0,0,0,4.9-4.183,6.468,6.468,0,0,0,5.179,4.733C-86.283-74.127-88.185-72.876-89-70.143Zm12.948-21.612a5.344,5.344,0,0,1-5.509,5.341A5.344,5.344,0,0,1-86.9-91.921a5.344,5.344,0,0,1,5.509-5.343A5.343,5.343,0,0,1-76.052-91.755ZM-113.7-60.3a5.337,5.337,0,0,1-5.452,5.4,5.337,5.337,0,0,1-5.4-5.452,5.338,5.338,0,0,1,5.453-5.4A5.338,5.338,0,0,1-113.7-60.3Zm4.764-45.045a5.3,5.3,0,0,1,5.466-5.359,5.3,5.3,0,0,1,5.257,5.364,5.3,5.3,0,0,1-5.466,5.359A5.3,5.3,0,0,1-108.937-105.346Zm-14.24,20.88a5.3,5.3,0,0,1-5.266,5.355,5.3,5.3,0,0,1-5.457-5.368,5.3,5.3,0,0,1,5.267-5.355A5.3,5.3,0,0,1-123.177-84.466Zm43.8,27.328a5.3,5.3,0,0,1-5.34,5.457,5.3,5.3,0,0,1-5.406-5.391,5.3,5.3,0,0,1,5.238-5.355A5.3,5.3,0,0,1-79.378-57.138ZM-120.337-106.7a5.351,5.351,0,0,1,5.279-5.174,5.337,5.337,0,0,1,5.327,5.331,5.346,5.346,0,0,1-5.381,5.276A5.351,5.351,0,0,1-120.337-106.7Zm22.872,2.166a5.3,5.3,0,0,1,5.459-5.338,5.3,5.3,0,0,1,5.237,5.357,5.3,5.3,0,0,1-5.459,5.339A5.3,5.3,0,0,1-97.465-104.534ZM-115.091-48.97a5.372,5.372,0,0,1-5.263,5.363,5.382,5.382,0,0,1-5.262-5.162,5.373,5.373,0,0,1,5.263-5.363A5.382,5.382,0,0,1-115.091-48.97Zm29.151-54.381a5.373,5.373,0,0,1,5.438-5.229,5.384,5.384,0,0,1,5.127,5.336,5.373,5.373,0,0,1-5.438,5.229A5.383,5.383,0,0,1-85.941-103.351Zm21.185,12.366a5.377,5.377,0,0,1-5.4,5.227,5.39,5.39,0,0,1-5.125-5.3,5.376,5.376,0,0,1,5.4-5.227A5.389,5.389,0,0,1-64.756-90.985Zm-2,23.256a5.338,5.338,0,0,1-5.271,5.341,5.339,5.339,0,0,1-5.341-5.272A5.338,5.338,0,0,1-72.1-73,5.339,5.339,0,0,1-66.758-67.729ZM-76.15-79.134a5.33,5.33,0,0,1,5.295-5.331,5.329,5.329,0,0,1,5.331,5.295,5.329,5.329,0,0,1-5.295,5.331A5.329,5.329,0,0,1-76.15-79.134Zm-48.268,6.614a5.3,5.3,0,0,1-5.331,5.263,5.3,5.3,0,0,1-5.365-5.433,5.3,5.3,0,0,1,5.331-5.263A5.3,5.3,0,0,1-124.418-72.52Zm32.7,25.733a5.34,5.34,0,0,1-5.343,5.27,5.34,5.34,0,0,1-5.27-5.343,5.34,5.34,0,0,1,5.343-5.27A5.34,5.34,0,0,1-91.721-46.786Zm-41.3-49.266a5.354,5.354,0,0,1,5.476-5.182,5.345,5.345,0,0,1,5.131,5.323,5.344,5.344,0,0,1-5.373,5.284A5.35,5.35,0,0,1-133.023-96.052Zm-2.837,34.9a5.381,5.381,0,0,1,5.175-5.274,5.374,5.374,0,0,1,5.376,5.277,5.38,5.38,0,0,1-5.175,5.273A5.373,5.373,0,0,1-135.86-61.148Zm32.689,13.579a5.328,5.328,0,0,1-5.388,5.243,5.328,5.328,0,0,1-5.243-5.388,5.328,5.328,0,0,1,5.388-5.242A5.328,5.328,0,0,1-103.171-47.569Zm22.816,2.047a5.323,5.323,0,0,1-5.288,5.14,5.324,5.324,0,0,1-5.141-5.288A5.324,5.324,0,0,1-85.5-50.81,5.323,5.323,0,0,1-80.355-45.522Zm12.687-10.663a5.326,5.326,0,0,1-5.266,5.163A5.326,5.326,0,0,1-78.1-56.287a5.327,5.327,0,0,1,5.265-5.163A5.326,5.326,0,0,1-67.668-56.184Zm-63.938-51.325a5.121,5.121,0,0,1,5.132-4.994,5.121,5.121,0,0,1,5.1,5.235,5.121,5.121,0,0,1-5.132,4.994A5.121,5.121,0,0,1-131.606-107.51Zm-3.724,22.374a5.037,5.037,0,0,1-5.18,4.921,5.029,5.029,0,0,1-4.962-5.333,5.024,5.024,0,0,1,5.272-4.814A5.034,5.034,0,0,1-135.33-85.136Zm27.49-31.848a5.057,5.057,0,0,1,5.214-4.9,5.056,5.056,0,0,1,4.954,5.165,5.053,5.053,0,0,1-5.114,5.006A5.058,5.058,0,0,1-107.84-116.983Zm-28.325,43.066a5,5,0,0,1-4.923,5.144,5,5,0,0,1-5.2-5.076,5,5,0,0,1,5.025-5.043A5,5,0,0,1-136.165-73.917Zm40.217-42.224a5,5,0,0,1,5.166-4.9,5,5,0,0,1,4.943,5.318,4.991,4.991,0,0,1-5.259,4.8A5,5,0,0,1-95.948-116.141ZM-74.216-102.5a4.924,4.924,0,0,1,5.038-4.994,4.924,4.924,0,0,1,4.994,5.038,4.924,4.924,0,0,1-5.038,4.994A4.924,4.924,0,0,1-74.216-102.5ZM-126.8-49.643a4.923,4.923,0,0,1-5.06,4.971,4.923,4.923,0,0,1-4.971-5.06,4.923,4.923,0,0,1,5.06-4.971A4.923,4.923,0,0,1-126.8-49.643Zm-17.375-47.248a4.9,4.9,0,0,1,4.982-4.851,4.9,4.9,0,0,1,5,5.033,4.9,4.9,0,0,1-5.084,4.953A4.9,4.9,0,0,1-144.172-96.891Zm22.944,64.82a4.9,4.9,0,0,1-4.875-4.936,4.9,4.9,0,0,1,5.088-4.925,4.9,4.9,0,0,1,4.773,5.037A4.894,4.894,0,0,1-121.228-32.071Zm52.085-12.548a4.881,4.881,0,0,1-5.025,4.811,4.888,4.888,0,0,1-4.912-5.127,4.881,4.881,0,0,1,5.025-4.811A4.887,4.887,0,0,1-69.142-44.619Zm-24.135,9.2a4.887,4.887,0,0,1-4.971,5.037,4.886,4.886,0,0,1-4.986-5.021,4.883,4.883,0,0,1,4.869-4.936A4.89,4.89,0,0,1-93.277-35.423ZM-54.4-78.291a4.892,4.892,0,0,1-5.078,4.94,4.9,4.9,0,0,1-4.889-5.128,4.887,4.887,0,0,1,4.976-4.839A4.89,4.89,0,0,1-54.4-78.291Zm-1.233,11.552A4.894,4.894,0,0,1-60.793-61.9a4.884,4.884,0,0,1-4.792-5.012,4.888,4.888,0,0,1,5.064-4.944A4.891,4.891,0,0,1-55.628-66.739Zm-28.767-48.072a4.878,4.878,0,0,1,4.918-4.908,4.881,4.881,0,0,1,5.01,5.02,4.877,4.877,0,0,1-4.918,4.908A4.881,4.881,0,0,1-84.395-114.811ZM-104.731-36.1a4.894,4.894,0,0,1-5.117,4.9,4.9,4.9,0,0,1-4.849-5.167,4.887,4.887,0,0,1,5.014-4.8A4.889,4.889,0,0,1-104.731-36.1Zm-32.348-26.258a4.884,4.884,0,0,1-5.081,4.949,4.877,4.877,0,0,1-4.848-4.978,4.884,4.884,0,0,1,5.081-4.95A4.877,4.877,0,0,1-137.079-62.359ZM-63.494-89.95a4.9,4.9,0,0,1,5.041-4.776,4.891,4.891,0,0,1,4.827,4.99,4.894,4.894,0,0,1-4.939,4.878A4.9,4.9,0,0,1-63.494-89.95Zm-50.7-33.063a4.889,4.889,0,0,1,4.964,5.053,4.892,4.892,0,0,1-5.1,4.913A4.885,4.885,0,0,1-119.2-118,4.889,4.889,0,0,1-114.2-123.012Zm-11.369-.731a4.96,4.96,0,0,1,4.787,5.056,4.956,4.956,0,0,1-5.107,4.734,4.96,4.96,0,0,1-4.685-4.952A4.957,4.957,0,0,1-125.565-123.744Zm43.682,89.622a4.921,4.921,0,0,1-4.929,4.9,4.92,4.92,0,0,1-4.9-4.929,4.921,4.921,0,0,1,4.929-4.9A4.921,4.921,0,0,1-81.883-34.122ZM-56.51-55.369A4.918,4.918,0,0,1-61.473-50.5a4.918,4.918,0,0,1-4.866-4.962,4.92,4.92,0,0,1,4.962-4.866A4.92,4.92,0,0,1-56.51-55.369Zm-86.746-52.948A4.96,4.96,0,0,1-138.2-113.1,4.956,4.956,0,0,1-133.466-108a4.96,4.96,0,0,1-4.952,4.685A4.957,4.957,0,0,1-143.256-108.317Zm80.144-5.543A4.963,4.963,0,0,1-68-109.076a4.96,4.96,0,0,1-4.834-5.04,4.97,4.97,0,0,1,4.988-4.682A4.968,4.968,0,0,1-63.112-113.86Zm-69.442,80.478a4.95,4.95,0,0,1-4.924-4.923,4.954,4.954,0,0,1,4.872-4.771,4.956,4.956,0,0,1,4.822,4.82A4.954,4.954,0,0,1-132.554-33.382ZM-96.7-128.206a4.93,4.93,0,0,1-4.884,4.776,4.931,4.931,0,0,1-4.776-4.884,4.93,4.93,0,0,1,4.884-4.776A4.931,4.931,0,0,1-96.7-128.206Zm-41.711,77.28a4.957,4.957,0,0,1-5,4.871,4.967,4.967,0,0,1-4.718-4.953,4.963,4.963,0,0,1,4.9-4.769A4.962,4.962,0,0,1-138.41-50.926Zm76.236-50.3a4.948,4.948,0,0,1,4.767-4.865,4.949,4.949,0,0,1,4.915,4.716A4.95,4.95,0,0,1-57.36-96.41,4.948,4.948,0,0,1-62.174-101.227Zm-94.515,14.637a4.933,4.933,0,0,1,4.9-4.753,4.932,4.932,0,0,1,4.752,4.9,4.932,4.932,0,0,1-4.9,4.753A4.932,4.932,0,0,1-156.689-86.591Zm81.735,58.069a4.889,4.889,0,0,1-4.772-4.669,4.9,4.9,0,0,1,4.719-4.925,4.887,4.887,0,0,1,4.874,4.771A4.886,4.886,0,0,1-74.954-28.522Zm-82.539-46.112a4.9,4.9,0,0,1,4.794-4.827,4.9,4.9,0,0,1,4.828,4.793,4.9,4.9,0,0,1-4.794,4.828A4.9,4.9,0,0,1-157.493-74.634Zm90.045,30.956a4.89,4.89,0,0,1,4.772-4.668,4.884,4.884,0,0,1,4.821,4.824,4.887,4.887,0,0,1-4.875,4.77A4.9,4.9,0,0,1-67.449-43.678Zm-22.57-88.574a4.909,4.909,0,0,1,4.759,4.863,4.909,4.909,0,0,1-4.863,4.759,4.909,4.909,0,0,1-4.759-4.863A4.909,4.909,0,0,1-90.019-132.253Zm45.577,66.684a4.7,4.7,0,0,1-4.734,4.626,4.712,4.712,0,0,1-4.678-4.683,4.708,4.708,0,0,1,4.836-4.728A4.707,4.707,0,0,1-44.442-65.568Zm-63.8-63.763a4.783,4.783,0,0,1-5,4.576,4.784,4.784,0,0,1-4.488-4.888,4.784,4.784,0,0,1,5-4.576A4.785,4.785,0,0,1-108.242-129.332ZM-94.418-23.185a4.608,4.608,0,0,1-4.917,4.35,4.62,4.62,0,0,1-4.406-4.873,4.616,4.616,0,0,1,5.029-4.44A4.6,4.6,0,0,1-94.418-23.185Zm-60.964-74.738a4.794,4.794,0,0,1,4.793-4.8,4.8,4.8,0,0,1,4.7,4.691,4.794,4.794,0,0,1-4.794,4.8A4.794,4.794,0,0,1-155.382-97.923Zm6.144,34.71a4.628,4.628,0,0,1-4.6,4.694,4.634,4.634,0,0,1-4.744-4.754,4.628,4.628,0,0,1,4.7-4.592A4.626,4.626,0,0,1-149.238-63.213ZM-43.214-77.025A4.7,4.7,0,0,1-47.949-72.4a4.711,4.711,0,0,1-4.676-4.684,4.708,4.708,0,0,1,4.837-4.727A4.706,4.706,0,0,1-43.214-77.025Zm-62.612,52.375a4.7,4.7,0,0,1-4.729,4.631,4.713,4.713,0,0,1-4.68-4.882,4.709,4.709,0,0,1,4.829-4.53A4.707,4.707,0,0,1-105.827-24.651Zm27.241-106.269a4.712,4.712,0,0,1,4.68,4.681,4.7,4.7,0,0,1-4.63,4.731,4.707,4.707,0,0,1-4.781-4.579A4.708,4.708,0,0,1-78.586-130.919Zm36.107,42.034a4.557,4.557,0,0,1-4.762,4.535,4.554,4.554,0,0,1-4.481-4.814A4.547,4.547,0,0,1-47.065-93.6,4.554,4.554,0,0,1-42.479-88.886Zm-90.007-31.245a4.582,4.582,0,0,1-4.591,4.7,4.581,4.581,0,0,1-4.7-4.59,4.582,4.582,0,0,1,4.591-4.7A4.582,4.582,0,0,1-132.486-120.13ZM-117.8-25.679a4.524,4.524,0,0,1-4.516,4.736A4.52,4.52,0,0,1-127-25.509a4.52,4.52,0,0,1,4.618-4.634A4.518,4.518,0,0,1-117.8-25.679Zm61.26-91.612a4.5,4.5,0,0,1,4.608,4.659,4.5,4.5,0,0,1-4.558,4.5,4.5,4.5,0,0,1-4.607-4.455A4.508,4.508,0,0,1-56.539-117.291Zm-63.333-12.714a4.5,4.5,0,0,1-4.976,4.266,4.516,4.516,0,0,1-4.171-4.867,4.5,4.5,0,0,1,4.772-4.28A4.514,4.514,0,0,1-119.873-130.005Zm-13.974,98.719a4.491,4.491,0,0,1,4.5,4.527,4.491,4.491,0,0,1-4.527,4.5,4.491,4.491,0,0,1-4.5-4.527A4.491,4.491,0,0,1-133.847-31.286Zm-20.538-78.244a4.485,4.485,0,0,1,4.559-4.47,4.489,4.489,0,0,1,4.572,4.661,4.484,4.484,0,0,1-4.559,4.47A4.49,4.49,0,0,1-154.384-109.53Zm4.191,58.015a4.491,4.491,0,0,1-4.7,4.32,4.489,4.489,0,0,1-4.37-4.655,4.5,4.5,0,0,1,4.807-4.417A4.49,4.49,0,0,1-150.193-51.516Zm78.5-73.97a4.486,4.486,0,0,1,4.578-4.448,4.477,4.477,0,0,1,4.5,4.528,4.485,4.485,0,0,1-4.68,4.549A4.492,4.492,0,0,1-71.692-125.486Zm21.3,25.13a4.491,4.491,0,0,1,4.439-4.592,4.492,4.492,0,0,1,4.592,4.439A4.492,4.492,0,0,1-45.8-95.917,4.492,4.492,0,0,1-50.389-100.356Zm5.005,46.289a4.5,4.5,0,0,1-4.6,4.46,4.507,4.507,0,0,1-4.562-4.7,4.5,4.5,0,0,1,4.6-4.46A4.506,4.506,0,0,1-45.384-54.067ZM-92.2-22.754a4.509,4.509,0,0,1,4.76-4.507,4.506,4.506,0,0,1,4.4,4.657A4.508,4.508,0,0,1-87.793-18.1,4.506,4.506,0,0,1-92.2-22.754Zm-51.967-11.728a4.493,4.493,0,0,1-4.49-4.743,4.491,4.491,0,0,1,4.641-4.388,4.492,4.492,0,0,1,4.49,4.742A4.493,4.493,0,0,1-144.164-34.482Zm85.219,2.467a4.487,4.487,0,0,1-4.6,4.45,4.487,4.487,0,0,1-4.45-4.6,4.488,4.488,0,0,1,4.6-4.45A4.487,4.487,0,0,1-58.945-32.014ZM-46.7-42.682a4.517,4.517,0,0,1-4.6,4.447,4.522,4.522,0,0,1-4.4-4.647,4.522,4.522,0,0,1,4.7-4.344A4.519,4.519,0,0,1-46.7-42.682Zm-121.11-44.564a4.521,4.521,0,0,1,4.5-4.576,4.525,4.525,0,0,1,4.475,4.394,4.521,4.521,0,0,1-4.5,4.576A4.525,4.525,0,0,1-167.808-87.246Zm87.167,65.6a4.529,4.529,0,0,1,4.575-4.292,4.525,4.525,0,0,1,4.392,4.678,4.528,4.528,0,0,1-4.575,4.292A4.524,4.524,0,0,1-80.641-21.644Zm-3.729-117.19a4.536,4.536,0,0,1-4.641,4.408,4.541,4.541,0,0,1-4.306-4.539,4.537,4.537,0,0,1,4.641-4.408A4.543,4.543,0,0,1-84.369-138.834Zm-20.826-1.359a4.529,4.529,0,0,1,4.653-4.42,4.529,4.529,0,0,1,4.317,4.551,4.529,4.529,0,0,1-4.653,4.42A4.529,4.529,0,0,1-105.2-140.193Zm-38.935,19.153a4.548,4.548,0,0,1-4.467,4.606,4.537,4.537,0,0,1-4.453-4.416,4.552,4.552,0,0,1,4.366-4.5A4.554,4.554,0,0,1-144.131-121.04ZM-159.66-75.794a4.526,4.526,0,0,1-4.667,4.395,4.528,4.528,0,0,1-4.295-4.564,4.527,4.527,0,0,1,4.668-4.4A4.529,4.529,0,0,1-159.66-75.794Zm43.049-65.363a4.565,4.565,0,0,1,4.6-4.235,4.56,4.56,0,0,1,4.285,4.555,4.552,4.552,0,0,1-4.707,4.329A4.564,4.564,0,0,1-116.612-141.157Zm71.489,24.873a4.5,4.5,0,0,1,4.46,4.376A4.5,4.5,0,0,1-45.09-107.5a4.5,4.5,0,0,1-4.358-4.274A4.5,4.5,0,0,1-45.123-116.284Zm-32.244-17.388a4.514,4.514,0,0,1-4.428-4.443,4.52,4.52,0,0,1,4.494-4.377,4.534,4.534,0,0,1,4.325,4.341A4.516,4.516,0,0,1-77.367-133.672Zm45.315,57.417a4.52,4.52,0,0,1-4.494,4.377,4.53,4.53,0,0,1-4.326-4.545A4.525,4.525,0,0,1-36.48-80.7,4.514,4.514,0,0,1-32.052-76.255ZM-140.759-131.64a4.556,4.556,0,0,1,4.5-4.34,4.549,4.549,0,0,1,4.391,4.45,4.549,4.549,0,0,1-4.4,4.442A4.547,4.547,0,0,1-140.759-131.64Zm85.395,11.456a4.5,4.5,0,0,1-4.314-4.522,4.505,4.505,0,0,1,4.369-4.264,4.5,4.5,0,0,1,4.416,4.42A4.5,4.5,0,0,1-55.365-120.184Zm-40.544,108.1a4.5,4.5,0,0,1-4.4,4.439,4.5,4.5,0,0,1-4.388-4.448,4.5,4.5,0,0,1,4.295-4.338A4.5,4.5,0,0,1-95.909-12.085Zm58.692-48.351a4.5,4.5,0,0,1-4.456-4.38,4.5,4.5,0,0,1,4.431-4.405,4.5,4.5,0,0,1,4.355,4.278A4.5,4.5,0,0,1-37.216-60.437ZM-166.541-98.877a4.55,4.55,0,0,1,4.477-4.364,4.549,4.549,0,0,1,4.415,4.426,4.555,4.555,0,0,1-4.578,4.466A4.554,4.554,0,0,1-166.541-98.877Zm5.582,34.389a4.517,4.517,0,0,1-4.393,4.478,4.514,4.514,0,0,1-4.427-4.444,4.525,4.525,0,0,1,4.291-4.376A4.528,4.528,0,0,1-160.959-64.488Zm9.4,24.263a4.5,4.5,0,0,1-4.493,4.343,4.5,4.5,0,0,1-4.292-4.544,4.507,4.507,0,0,1,4.391-4.241A4.5,4.5,0,0,1-151.564-40.226ZM-107.35-13.19a4.529,4.529,0,0,1-4.537,4.334,4.531,4.531,0,0,1-4.281-4.588,4.525,4.525,0,0,1,4.433-4.231A4.517,4.517,0,0,1-107.35-13.19Zm-42.315-14.657a4.449,4.449,0,0,1,4.5-4.1,4.446,4.446,0,0,1,4.192,4.618,4.45,4.45,0,0,1-4.5,4.1A4.446,4.446,0,0,1-149.665-27.847Zm30.777,13.84a4.389,4.389,0,0,1-4.358,4.252,4.387,4.387,0,0,1-4.3-4.511,4.4,4.4,0,0,1,4.456-4.15A4.4,4.4,0,0,1-118.888-14.007ZM-30.9-87.774a4.39,4.39,0,0,1-4.252,4.358,4.389,4.389,0,0,1-4.409-4.405,4.39,4.39,0,0,1,4.355-4.256A4.391,4.391,0,0,1-30.9-87.774Zm-4.285,46.152a4.071,4.071,0,0,1-4.172,4.256,4.06,4.06,0,0,1-4.1-4.121,4.061,4.061,0,0,1,4.07-4.155A4.066,4.066,0,0,1-35.188-41.622Zm-8.659-77.619a4.072,4.072,0,0,1-4.088-3.975,4.08,4.08,0,0,1,4.025-4.241,4.074,4.074,0,0,1,4.191,4.077A4.071,4.071,0,0,1-43.848-119.241ZM-58.554-136.2a4.115,4.115,0,0,1,4.153-3.916,4.119,4.119,0,0,1,4.018,4.256,4.115,4.115,0,0,1-4.153,3.916A4.119,4.119,0,0,1-58.554-136.2Zm-107.017,25.782a4.311,4.311,0,0,1,4.412-4.125,4.3,4.3,0,0,1,4.175,4.361,4.3,4.3,0,0,1-4.31,4.226A4.315,4.315,0,0,1-165.571-110.423Zm1.415-11.886a4.074,4.074,0,0,1,4.141-3.921,4.074,4.074,0,0,1,4.073,4.194,4.079,4.079,0,0,1-4.244,4.022A4.08,4.08,0,0,1-164.156-122.309ZM-42.8-53.4a4.3,4.3,0,0,1,4.326-4.261,4.3,4.3,0,0,1,4.261,4.325,4.3,4.3,0,0,1-4.325,4.262A4.305,4.305,0,0,1-42.8-53.4Zm-123.4,4.672a4.173,4.173,0,0,1-4.216-4.3,4.175,4.175,0,0,1,4.143-4.165A4.177,4.177,0,0,1-161.957-53,4.17,4.17,0,0,1-166.2-48.731ZM-38.587-99.359a4.079,4.079,0,0,1,4.224-4.016,4.089,4.089,0,0,1,4.118,4.326,4.08,4.08,0,0,1-4.224,4.016A4.089,4.089,0,0,1-38.587-99.359ZM-60.4-20.617a4.305,4.305,0,0,1-4.31,4.278,4.305,4.305,0,0,1-4.278-4.31,4.3,4.3,0,0,1,4.31-4.278A4.3,4.3,0,0,1-60.4-20.617Zm-67.516-121.494a4.3,4.3,0,0,1,4.23-4.356,4.3,4.3,0,0,1,4.357,4.23,4.3,4.3,0,0,1-4.231,4.357A4.3,4.3,0,0,1-127.921-142.111Zm-2.571,126.95a4.1,4.1,0,0,1-4.234,4.033,4.108,4.108,0,0,1-4.136-4.336,4.1,4.1,0,0,1,4.234-4.034A4.107,4.107,0,0,1-130.492-15.161Zm-8.7-127.866A4.074,4.074,0,0,1-135-147.1a4.079,4.079,0,0,1,4.022,4.244,4.08,4.08,0,0,1-4.3,3.971A4.074,4.074,0,0,1-139.194-143.027Zm47.072-7.377a4.1,4.1,0,0,1,4.194-4.052,4.1,4.1,0,0,1,4,4.041,4.094,4.094,0,0,1-4.093,4.154A4.091,4.091,0,0,1-92.122-150.4Zm-59.8,18.018a4.053,4.053,0,0,1,4.13-4.114,4.056,4.056,0,0,1,4.165,4.08,4.061,4.061,0,0,1-4.029,4.216A4.064,4.064,0,0,1-151.92-132.386Zm81.763-4.446a4.17,4.17,0,0,1,4.26-4.253,4.176,4.176,0,0,1,4.2,4.311,4.183,4.183,0,0,1-4.363,4.151A4.174,4.174,0,0,1-70.157-136.832Zm-33.426-14.9a4.093,4.093,0,0,1,4.3-3.955,4.088,4.088,0,0,1,3.905,4.142,4.084,4.084,0,0,1-4.194,4.058A4.089,4.089,0,0,1-103.584-151.73ZM-152.668-28.851a4.07,4.07,0,0,1-4.125,4.142,4.073,4.073,0,0,1-4.09-4.177,4.074,4.074,0,0,1,4.023-4.04A4.074,4.074,0,0,1-152.668-28.851ZM-84.14-11.284a4.3,4.3,0,0,1-4.23,4.357,4.3,4.3,0,0,1-4.357-4.23,4.3,4.3,0,0,1,4.23-4.357A4.3,4.3,0,0,1-84.14-11.284Zm11.3,1.19a4.07,4.07,0,0,1-3.986,4.239,4.071,4.071,0,0,1-4.289-4.139,4.059,4.059,0,0,1,4.088-4.136A4.061,4.061,0,0,1-72.838-10.093Zm25.119-21.242a4.3,4.3,0,0,1-4.23,4.356,4.3,4.3,0,0,1-4.357-4.23,4.3,4.3,0,0,1,4.231-4.357A4.3,4.3,0,0,1-47.719-31.335ZM-171.912-76.658A4.1,4.1,0,0,1-176.1-72.6a4.1,4.1,0,0,1-4.008-4.238,4.1,4.1,0,0,1,4.085-3.957A4.09,4.09,0,0,1-171.912-76.658Zm1.231-11.851a4.085,4.085,0,0,1-4.207,4.045,4.093,4.093,0,0,1-3.994-4.258,4.088,4.088,0,0,1,4.105-3.943A4.083,4.083,0,0,1-170.681-88.509Zm133.009-22.178a4.133,4.133,0,0,1,4-4.05,4.13,4.13,0,0,1,4.151,4.1,4.134,4.134,0,0,1-4,4.05A4.13,4.13,0,0,1-37.672-110.688Zm-140.366,10.637a4.133,4.133,0,0,1,4.2-4.047,4.139,4.139,0,0,1,3.946,4.1,4.133,4.133,0,0,1-4.2,4.047A4.138,4.138,0,0,1-178.038-100.051Zm63.021-52.382a4.133,4.133,0,0,1,4-4.047,4.13,4.13,0,0,1,4.149,4.1,4.134,4.134,0,0,1-4,4.047A4.129,4.129,0,0,1-115.016-152.432Zm-27.057,136.3a4.146,4.146,0,0,1-4.007,4.066,4.142,4.142,0,0,1-4.117-4.16,4.146,4.146,0,0,1,4.109-3.963A4.145,4.145,0,0,1-142.074-16.135ZM-20.953-75.1a4.151,4.151,0,0,1-4.01,4.091,4.152,4.152,0,0,1-4.091-4.011,4.151,4.151,0,0,1,4.011-4.091A4.151,4.151,0,0,1-20.953-75.1Zm-59.675-74.46a4.143,4.143,0,0,1,4.234-4.041,4.154,4.154,0,0,1,3.89,4.183,4.153,4.153,0,0,1-4.132,3.94A4.144,4.144,0,0,1-80.628-149.56Zm-92.138,84.19a4.14,4.14,0,0,1-4.084,4.192,4.145,4.145,0,0,1-4.039-4.033,4.144,4.144,0,0,1,3.982-4.09A4.154,4.154,0,0,1-172.766-65.369Zm1.276,24.335a4.13,4.13,0,0,1,4.116-4.135,4.134,4.134,0,0,1,4.033,4.015,4.128,4.128,0,0,1-4.116,4.135A4.135,4.135,0,0,1-171.49-41.034ZM-48.769-19.707a4.15,4.15,0,0,1-4.118,3.955,4.147,4.147,0,0,1-4.006-4.067,4.144,4.144,0,0,1,4.219-4.057A4.155,4.155,0,0,1-48.769-19.707Zm-127.957-91.9a4.118,4.118,0,0,1,4.01-3.87,4.1,4.1,0,0,1,3.972,4.113,4.116,4.116,0,0,1-4.01,3.87A4.1,4.1,0,0,1-176.727-111.6Zm145.7,59.523a4.07,4.07,0,0,1,4.012-4.036A4.064,4.064,0,0,1-23.076-52a4.08,4.08,0,0,1-4.012,3.833A4.07,4.07,0,0,1-31.023-52.08Zm11.239-34.861a4.1,4.1,0,0,1-4.08,4.005,4.107,4.107,0,0,1-3.9-3.978,4.1,4.1,0,0,1,4.08-4A4.107,4.107,0,0,1-19.784-86.942ZM-120.057-2.369a4.1,4.1,0,0,1-4.135,3.734,4.108,4.108,0,0,1-3.824-4.249,4.1,4.1,0,0,1,4.136-3.734A4.107,4.107,0,0,1-120.057-2.369ZM-61.488-9.18a4.15,4.15,0,0,1-4.024,4.035,4.15,4.15,0,0,1-4.035-4.024A4.151,4.151,0,0,1-65.523-13.2,4.148,4.148,0,0,1-61.488-9.18Zm-24.2,9.46a4.065,4.065,0,0,1-4.117,3.931A4.083,4.083,0,0,1-93.635.2a4.064,4.064,0,0,1,4.117-3.93A4.082,4.082,0,0,1-85.688.281ZM-108.55-1.374a4.148,4.148,0,0,1-4.053,4,4.149,4.149,0,0,1-4.005-4.054,4.149,4.149,0,0,1,4.053-4A4.148,4.148,0,0,1-108.55-1.374Zm11.459.753a4.148,4.148,0,0,1-3.989,4.07A4.147,4.147,0,0,1-105.149-.54a4.146,4.146,0,0,1,3.989-4.069A4.148,4.148,0,0,1-97.091-.621ZM-126.8-153.555a4.109,4.109,0,0,1,4.016-4.069,4.106,4.106,0,0,1,3.966,3.915,4.108,4.108,0,0,1-4.016,4.069A4.107,4.107,0,0,1-126.8-153.555ZM-36.525-29.991a4.145,4.145,0,0,1-4.083,3.975A4.146,4.146,0,0,1-44.583-30.1,4.147,4.147,0,0,1-40.5-34.074,4.146,4.146,0,0,1-36.525-29.991ZM-25.8-59.572a4.149,4.149,0,0,1-4.049-4.009,4.148,4.148,0,0,1,4.008-4.049,4.148,4.148,0,0,1,4.049,4.008A4.149,4.149,0,0,1-25.8-59.572Zm-43.264-88.765a4.037,4.037,0,0,1,3.932-3.932,4.039,4.039,0,0,1,3.983,3.88,4.043,4.043,0,0,1-4.034,4.034A4.038,4.038,0,0,1-69.065-148.337ZM-177.508-49.855a3.972,3.972,0,0,1-4.063-3.94,3.973,3.973,0,0,1,3.889-3.911,3.967,3.967,0,0,1,3.962,3.838A3.969,3.969,0,0,1-177.508-49.855Zm27.038-93.993a3.974,3.974,0,0,1,3.911-3.889,3.968,3.968,0,0,1,3.94,3.861,3.967,3.967,0,0,1-3.81,3.99A3.968,3.968,0,0,1-150.47-143.847Zm-12.686,10.211a3.968,3.968,0,0,1,3.932-3.869,3.972,3.972,0,0,1,3.919,3.881,3.966,3.966,0,0,1-3.83,3.97A3.965,3.965,0,0,1-163.156-133.637ZM-24.075-40.663a3.718,3.718,0,0,1-3.916,3.772,3.709,3.709,0,0,1-3.67-3.815,3.717,3.717,0,0,1,3.916-3.771A3.708,3.708,0,0,1-24.075-40.663ZM-36.163-122.5a3.713,3.713,0,0,1,3.865-3.823,3.709,3.709,0,0,1,3.721,3.763,3.713,3.713,0,0,1-3.865,3.823A3.71,3.71,0,0,1-36.163-122.5Zm-128.269,93a3.723,3.723,0,0,1-3.833,3.67,3.732,3.732,0,0,1-3.772-3.935,3.722,3.722,0,0,1,3.833-3.67A3.732,3.732,0,0,1-164.431-29.5Zm90.02,31.127A3.711,3.711,0,0,1-78.26,5.259a3.72,3.72,0,0,1-3.735-3.951,3.71,3.71,0,0,1,3.848-3.635A3.721,3.721,0,0,1-74.411,1.624ZM-19.127-98.3a3.771,3.771,0,0,1-3.971,3.74,3.774,3.774,0,0,1-3.684-4.022,3.759,3.759,0,0,1,3.865-3.637A3.767,3.767,0,0,1-19.127-98.3Zm-27.7-36.365a3.759,3.759,0,0,1,3.723-3.968,3.755,3.755,0,0,1,3.918,3.774,3.75,3.75,0,0,1-3.825,3.866A3.751,3.751,0,0,1-46.83-134.66ZM-132.084-3.542A3.754,3.754,0,0,1-135.859.375a3.748,3.748,0,0,1-3.866-3.825,3.749,3.749,0,0,1,3.672-3.815A3.759,3.759,0,0,1-132.084-3.542ZM-153.8-17.269a3.71,3.71,0,0,1-3.78,3.7,3.714,3.714,0,0,1-3.805-3.882,3.71,3.71,0,0,1,3.78-3.7A3.715,3.715,0,0,1-153.8-17.269Zm15.767-137.268a3.68,3.68,0,0,1,3.8-3.68,3.671,3.671,0,0,1,3.731,3.752,3.676,3.676,0,0,1-3.7,3.782A3.69,3.69,0,0,1-138.034-154.538Zm-37.629,31.6a3.662,3.662,0,0,1,3.7-3.745,3.672,3.672,0,0,1,3.8,3.647,3.675,3.675,0,0,1-3.6,3.846A3.674,3.674,0,0,1-175.663-122.942ZM-121.67,9.031a3.734,3.734,0,0,1-3.692,3.4,3.721,3.721,0,0,1-3.5-3.8,3.733,3.733,0,0,1,3.691-3.4A3.722,3.722,0,0,1-121.67,9.031Zm-60.918-51.387a3.669,3.669,0,0,1,3.6-3.679,3.679,3.679,0,0,1,3.832,3.646,3.673,3.673,0,0,1-3.7,3.782A3.675,3.675,0,0,1-182.587-42.356ZM-13.551-77.894a3.723,3.723,0,0,1,3.659,3.646,3.723,3.723,0,0,1-3.647,3.659A3.723,3.723,0,0,1-17.2-74.236,3.722,3.722,0,0,1-13.551-77.894ZM-125.2-165.077a3.734,3.734,0,0,1,3.653-3.628,3.744,3.744,0,0,1,3.577,3.5,3.732,3.732,0,0,1-3.551,3.73A3.728,3.728,0,0,1-125.2-165.077Zm-24.145,9.355a3.733,3.733,0,0,1,3.71-3.571,3.735,3.735,0,0,1,3.521,3.76,3.736,3.736,0,0,1-3.812,3.465A3.741,3.741,0,0,1-149.341-155.722Zm62.423,167.8A3.667,3.667,0,0,1-90.4,15.668a3.667,3.667,0,0,1-3.641-3.431,3.67,3.67,0,0,1,3.584-3.693A3.669,3.669,0,0,1-86.918,12.077Zm-11.8-1.283a3.728,3.728,0,0,1-3.549,3.719,3.732,3.732,0,0,1-3.719-3.549,3.733,3.733,0,0,1,3.55-3.719A3.732,3.732,0,0,1-98.713,10.794Zm63.571-144.874a3.724,3.724,0,0,1,3.581-3.5,3.711,3.711,0,0,1,3.6,3.683,3.724,3.724,0,0,1-3.581,3.5A3.71,3.71,0,0,1-35.142-134.081Zm9.714,104.874a3.723,3.723,0,0,1-3.635,3.648,3.721,3.721,0,0,1-3.7-3.788,3.727,3.727,0,0,1,3.738-3.546A3.723,3.723,0,0,1-25.428-29.207ZM-162.065-144.953a3.729,3.729,0,0,1,3.568-3.738,3.728,3.728,0,0,1,3.738,3.568,3.729,3.729,0,0,1-3.568,3.738A3.729,3.729,0,0,1-162.065-144.953ZM-12.275-82.1a3.718,3.718,0,0,1-3.643-3.66A3.727,3.727,0,0,1-12.36-89.3a3.718,3.718,0,0,1,3.643,3.66A3.728,3.728,0,0,1-12.275-82.1ZM-188.318-62.795a3.718,3.718,0,0,1-3.638-3.856,3.728,3.728,0,0,1,3.8-3.487,3.718,3.718,0,0,1,3.538,3.754A3.718,3.718,0,0,1-188.318-62.795Zm1.935-22.884a3.688,3.688,0,0,1-3.559-3.9,3.681,3.681,0,0,1,3.744-3.51,3.677,3.677,0,0,1,3.663,3.8A3.685,3.685,0,0,1-186.383-85.679ZM-63.078,2.307a3.723,3.723,0,0,1-3.638,3.645,3.72,3.72,0,0,1-3.7-3.791,3.727,3.727,0,0,1,3.74-3.543A3.723,3.723,0,0,1-63.078,2.307ZM-189.1-100.874a3.708,3.708,0,0,1,3.657-3.644,3.71,3.71,0,0,1,3.7,3.605,3.71,3.71,0,0,1-3.554,3.746A3.709,3.709,0,0,1-189.1-100.874Zm131.729-46.688a3.671,3.671,0,0,1,3.787-3.651,3.671,3.671,0,0,1,3.651,3.786,3.671,3.671,0,0,1-3.786,3.651A3.671,3.671,0,0,1-57.368-147.561ZM-143.676-4.476a3.71,3.71,0,0,1-3.782,3.492,3.706,3.706,0,0,1-3.592-3.886,3.71,3.71,0,0,1,3.782-3.492A3.706,3.706,0,0,1-143.676-4.476Zm132.947-58.4a3.733,3.733,0,0,1-3.539,3.73A3.733,3.733,0,0,1-18-62.688a3.733,3.733,0,0,1,3.539-3.73A3.732,3.732,0,0,1-10.729-62.878Zm-99.443,73.1a3.746,3.746,0,0,1-3.792,3.477A3.745,3.745,0,0,1-117.44,9.9a3.744,3.744,0,0,1,3.791-3.477A3.744,3.744,0,0,1-110.172,10.217ZM-50.33-8.033a3.674,3.674,0,0,1-3.642,3.816A3.674,3.674,0,0,1-57.787-7.86a3.674,3.674,0,0,1,3.642-3.816A3.675,3.675,0,0,1-50.33-8.033ZM-189.517-58.161a3.673,3.673,0,0,1,3.566,3.507,3.661,3.661,0,0,1-3.66,3.617,3.665,3.665,0,0,1-3.463-3.609A3.671,3.671,0,0,1-189.517-58.161Zm5.75-19.748a3.68,3.68,0,0,1-3.768,3.684,3.689,3.689,0,0,1-3.632-3.818,3.679,3.679,0,0,1,3.666-3.582A3.68,3.68,0,0,1-183.767-77.908Zm17.892,59.932a3.723,3.723,0,0,1-3.685,3.39,3.711,3.711,0,0,1-3.485-3.793,3.723,3.723,0,0,1,3.685-3.39A3.711,3.711,0,0,1-165.876-17.976Zm128.232-.672a3.669,3.669,0,0,1-3.668,3.791,3.669,3.669,0,0,1-3.79-3.668,3.668,3.668,0,0,1,3.668-3.79A3.667,3.667,0,0,1-37.644-18.648ZM-12-51.387a3.7,3.7,0,0,1-3.63,3.654,3.717,3.717,0,0,1-3.552-3.529,3.7,3.7,0,0,1,3.63-3.654A3.717,3.717,0,0,1-12-51.387ZM-113.8-163.871a3.71,3.71,0,0,1,3.79-3.673,3.71,3.71,0,0,1,3.572,3.688,3.71,3.71,0,0,1-3.79,3.673A3.71,3.71,0,0,1-113.8-163.871Zm11.435.775a3.68,3.68,0,0,1,3.805-3.654,3.684,3.684,0,0,1,3.6,3.857,3.686,3.686,0,0,1-3.907,3.549A3.68,3.68,0,0,1-102.369-163.1Zm11.458,1.247a3.677,3.677,0,0,1,3.583-3.673,3.686,3.686,0,0,1,3.826,3.634,3.676,3.676,0,0,1-3.685,3.775A3.675,3.675,0,0,1-90.91-161.848Zm11.9.83a3.724,3.724,0,0,1,3.636-3.648,3.725,3.725,0,0,1,3.7,3.585,3.718,3.718,0,0,1-3.738,3.749A3.722,3.722,0,0,1-79.006-161.018Zm11.564.817a3.67,3.67,0,0,1,3.531-3.542,3.668,3.668,0,0,1,3.593,3.48,3.656,3.656,0,0,1-3.633,3.644A3.668,3.668,0,0,1-67.442-160.2Zm49.4,50.482a3.7,3.7,0,0,1-3.713,3.563,3.7,3.7,0,0,1-3.665-3.815,3.7,3.7,0,0,1,3.713-3.563A3.7,3.7,0,0,1-18.041-109.719Zm-169.768-2.7a3.735,3.735,0,0,1,3.79-3.49,3.749,3.749,0,0,1,3.441,3.635,3.73,3.73,0,0,1-3.688,3.593A3.733,3.733,0,0,1-187.809-112.423Zm13.5-22.078a3.743,3.743,0,0,1,3.565-3.512,3.728,3.728,0,0,1,3.665,3.616,3.727,3.727,0,0,1-3.666,3.614A3.733,3.733,0,0,1-174.3-134.5Zm128.981-11.783a3.619,3.619,0,0,1,3.508-3.523,3.618,3.618,0,0,1,3.574,3.457,3.623,3.623,0,0,1-3.609,3.625A3.618,3.618,0,0,1-45.323-146.284Zm-130.828,115.4a3.619,3.619,0,0,1-3.467,3.565,3.624,3.624,0,0,1-3.615-3.619,3.617,3.617,0,0,1,3.568-3.463A3.619,3.619,0,0,1-176.151-30.887Zm151.76-90.543a3.5,3.5,0,0,1,3.657-3.348,3.5,3.5,0,0,1,3.3,3.5,3.491,3.491,0,0,1-3.556,3.455A3.5,3.5,0,0,1-24.391-121.43ZM-155.342-5.517a3.494,3.494,0,0,1-3.5,3.506A3.494,3.494,0,0,1-162.3-5.363a3.5,3.5,0,0,1,3.4-3.608A3.491,3.491,0,0,1-155.342-5.517ZM-39.121-7.172a3.493,3.493,0,0,1-3.487,3.524A3.5,3.5,0,0,1-46.08-6.982,3.5,3.5,0,0,1-42.7-10.608,3.5,3.5,0,0,1-39.121-7.172ZM-133.286,8.046a3.406,3.406,0,0,1-3.52,3.4,3.411,3.411,0,0,1-3.354-3.57,3.41,3.41,0,0,1,3.621-3.3A3.4,3.4,0,0,1-133.286,8.046ZM-14.949-97.177a3.431,3.431,0,0,1,3.316-3.432,3.439,3.439,0,0,1,3.585,3.367,3.432,3.432,0,0,1-3.418,3.534A3.431,3.431,0,0,1-14.949-97.177ZM-13.036-39.2a3.316,3.316,0,0,1-3.576,3.126,3.324,3.324,0,0,1-3.182-3.531,3.323,3.323,0,0,1,3.485-3.233A3.323,3.323,0,0,1-13.036-39.2Zm-62.6,52.186a3.316,3.316,0,0,1-3.391,3.328,3.327,3.327,0,0,1-3.378-3.545,3.32,3.32,0,0,1,3.492-3.226A3.319,3.319,0,0,1-75.637,12.982Zm-60.788-179.035a3.32,3.32,0,0,1,3.478-3.24,3.315,3.315,0,0,1,3.292,3.427,3.316,3.316,0,0,1-3.376,3.343A3.327,3.327,0,0,1-136.425-166.053Zm109.9,148.366a3.316,3.316,0,0,1-3.414,3.3A3.317,3.317,0,0,1-33.3-17.746a3.326,3.326,0,0,1,3.516-3.407A3.321,3.321,0,0,1-26.529-17.688ZM-51.5,3.521a3.311,3.311,0,0,1-3.537,3.365A3.309,3.309,0,0,1-58.253,3.4,3.3,3.3,0,0,1-54.817.137,3.3,3.3,0,0,1-51.5,3.521ZM-186.751-124.13a3.3,3.3,0,0,1,3.286-3.413A3.306,3.306,0,0,1-180-124.308a3.311,3.311,0,0,1-3.388,3.515A3.3,3.3,0,0,1-186.751-124.13Zm97.488-49.652a3.273,3.273,0,0,1,3.28-3.188,3.272,3.272,0,0,1,3.289,3.382,3.272,3.272,0,0,1-3.279,3.187A3.272,3.272,0,0,1-89.263-173.781Zm11.488,1.255a3.32,3.32,0,0,1,3.324-3.186,3.32,3.32,0,0,1,3.186,3.324,3.319,3.319,0,0,1-3.324,3.186A3.32,3.32,0,0,1-77.775-172.526ZM-64.3,14.054a3.309,3.309,0,0,1-3.162,3.358,3.31,3.31,0,0,1-3.358-3.162,3.31,3.31,0,0,1,3.162-3.358A3.31,3.31,0,0,1-64.3,14.054ZM-187-43.152a3.245,3.245,0,0,1-3.316,3.339,3.245,3.245,0,0,1-3.338-3.315,3.245,3.245,0,0,1,3.316-3.339A3.244,3.244,0,0,1-187-43.152Zm1.629-92.733a3.347,3.347,0,0,1,3.334-2.979,3.346,3.346,0,0,1,3.132,3.4,3.345,3.345,0,0,1-3.445,3.076A3.334,3.334,0,0,1-185.375-135.885Zm-14.76,33.913a3.322,3.322,0,0,1,3.157-3.353,3.323,3.323,0,0,1,3.353,3.157,3.323,3.323,0,0,1-3.157,3.353A3.323,3.323,0,0,1-200.135-101.972ZM-144.888,6.777a3.253,3.253,0,0,1-3.387,3.3,3.25,3.25,0,0,1-3.2-3.285,3.251,3.251,0,0,1,3.387-3.3A3.25,3.25,0,0,1-144.888,6.777ZM-196.5-67.317a3.33,3.33,0,0,1-3.207,3.272,3.331,3.331,0,0,1-3.273-3.208,3.331,3.331,0,0,1,3.208-3.272A3.33,3.33,0,0,1-196.5-67.317Zm-4.481-23.015a3.262,3.262,0,0,1,3.316-3.158,3.265,3.265,0,0,1,3.26,3.418,3.262,3.262,0,0,1-3.316,3.158A3.264,3.264,0,0,1-200.986-90.331Zm40.508-66.231a3.259,3.259,0,0,1,3.46-3.228,3.253,3.253,0,0,1,3.126,3.359,3.26,3.26,0,0,1-3.461,3.228A3.253,3.253,0,0,1-160.478-156.562Zm-17.2,137.469a3.334,3.334,0,0,1-3.143,3.337A3.334,3.334,0,0,1-184.16-18.9a3.334,3.334,0,0,1,3.143-3.337A3.333,3.333,0,0,1-177.68-19.093Zm10.64,12.306a3.333,3.333,0,0,1-3.172,3.309A3.333,3.333,0,0,1-173.52-6.65a3.333,3.333,0,0,1,3.171-3.309A3.333,3.333,0,0,1-167.04-6.787Zm111.29-152.232a3.256,3.256,0,0,1,3.394-3.26,3.255,3.255,0,0,1,3.26,3.394,3.255,3.255,0,0,1-3.394,3.26A3.255,3.255,0,0,1-55.749-159.019Zm-91.987-8.031a3.335,3.335,0,0,1,3.2-3.325,3.332,3.332,0,0,1,3.273,3.254,3.333,3.333,0,0,1-3.3,3.222A3.343,3.343,0,0,1-147.736-167.05Zm-25.428,21.2a3.252,3.252,0,0,1,3.387-3.3,3.25,3.25,0,0,1,3.2,3.285,3.253,3.253,0,0,1-3.387,3.3A3.25,3.25,0,0,1-173.164-145.848Zm150.241,13.063A3.331,3.331,0,0,1-19.66-136a3.33,3.33,0,0,1,3.217,3.264,3.329,3.329,0,0,1-3.263,3.217A3.331,3.331,0,0,1-22.924-132.785Zm-10.655-12.582A3.321,3.321,0,0,1-30.4-148.7a3.321,3.321,0,0,1,3.337,3.174,3.322,3.322,0,0,1-3.174,3.336A3.322,3.322,0,0,1-33.579-145.366ZM-202.21-78.872a3.273,3.273,0,0,1,3.312-3.155,3.274,3.274,0,0,1,3.257,3.413,3.274,3.274,0,0,1-3.312,3.155A3.274,3.274,0,0,1-202.21-78.872Zm90.059-96.826a3.319,3.319,0,0,1,3.223-3.287,3.318,3.318,0,0,1,3.288,3.223,3.319,3.319,0,0,1-3.223,3.287A3.319,3.319,0,0,1-112.151-175.7Zm98.592,66.588a3.268,3.268,0,0,1,3.474-3.2,3.267,3.267,0,0,1,3.1,3.37,3.268,3.268,0,0,1-3.474,3.2A3.266,3.266,0,0,1-13.559-109.11Zm-87.166-65.356a3.261,3.261,0,0,1,3.353-3.324,3.262,3.262,0,0,1,3.223,3.251,3.263,3.263,0,0,1-3.15,3.325A3.268,3.268,0,0,1-100.725-174.466Zm86.757,146.46a3.311,3.311,0,0,1-3.251,3.268,3.311,3.311,0,0,1-3.268-3.252,3.311,3.311,0,0,1,3.252-3.268A3.311,3.311,0,0,1-13.968-28.007ZM1.515-73.279A3.336,3.336,0,0,1-1.72-70.231a3.323,3.323,0,0,1-3.149-3.337,3.337,3.337,0,0,1,3.235-3.047A3.323,3.323,0,0,1,1.515-73.279ZM.274-61.3a3.328,3.328,0,0,1-3.332,2.938A3.313,3.313,0,0,1-6.084-61.81a3.329,3.329,0,0,1,3.332-2.938A3.314,3.314,0,0,1,.274-61.3ZM-111.432,21.642a3.334,3.334,0,0,1-3.214,3.068,3.319,3.319,0,0,1-3.17-3.315,3.334,3.334,0,0,1,3.214-3.069A3.321,3.321,0,0,1-111.432,21.642Zm11.458.621a3.316,3.316,0,0,1-3.22,3.266,3.332,3.332,0,0,1-3.164-3.118,3.316,3.316,0,0,1,3.22-3.266A3.332,3.332,0,0,1-99.974,22.263ZM-122.92,20.2a3.276,3.276,0,0,1-3.228,3.251,3.286,3.286,0,0,1-3.1-3.177,3.282,3.282,0,0,1,3.126-3.15A3.288,3.288,0,0,1-122.92,20.2Zm-1.018-196.861a3.309,3.309,0,0,1,3.233-3.065,3.3,3.3,0,0,1,3.116,3.182,3.294,3.294,0,0,1-3.335,3.166A3.31,3.31,0,0,1-123.938-176.659ZM-40.244,4.267a3.293,3.293,0,0,1-3.264,3.238,3.3,3.3,0,0,1-3.085-3.213,3.3,3.3,0,0,1,3.162-3.136A3.3,3.3,0,0,1-40.244,4.267ZM-188.4-31.683a3.284,3.284,0,0,1-3.111,3.164,3.288,3.288,0,0,1-3.215-3.06,3.276,3.276,0,0,1,3.212-3.267A3.285,3.285,0,0,1-188.4-31.683ZM-27.979-5.862a3.272,3.272,0,0,1-3.353,3.12,3.29,3.29,0,0,1-2.973-3.3,3.293,3.293,0,0,1,3.253-3.024A3.288,3.288,0,0,1-27.979-5.862ZM-44.126-158.107a3.277,3.277,0,0,1,3.289-3.19,3.292,3.292,0,0,1,3.037,3.239,3.286,3.286,0,0,1-3.187,3.088A3.282,3.282,0,0,1-44.126-158.107Zm-154.7,44.434a3.312,3.312,0,0,1,3.269-3.029,3.306,3.306,0,0,1,3.081,3.218,3.3,3.3,0,0,1-3.167,3.131A3.3,3.3,0,0,1-198.827-113.673ZM-4-84.933A3.231,3.231,0,0,1-.807-88.019,3.231,3.231,0,0,1,2.279-84.83,3.231,3.231,0,0,1-.91-81.745,3.231,3.231,0,0,1-4-84.933Zm-62.189-86.755a3.2,3.2,0,0,1,3.174-3.074,3.2,3.2,0,0,1,3.073,3.174,3.2,3.2,0,0,1-3.174,3.073A3.2,3.2,0,0,1-66.185-171.689ZM-156.546,6.049a3.137,3.137,0,0,1-3.228,3.012,3.133,3.133,0,0,1-2.955-3.278,3.134,3.134,0,0,1,3.12-2.911A3.132,3.132,0,0,1-156.546,6.049Zm67.932,17.495a3.137,3.137,0,0,1-2.922,3.111A3.137,3.137,0,0,1-94.8,23.686a3.136,3.136,0,0,1,3.023-3.216A3.13,3.13,0,0,1-88.614,23.544Zm76.037-144.079A3.2,3.2,0,0,1-9.4-123.609a3.2,3.2,0,0,1,3.074,3.174A3.2,3.2,0,0,1-9.5-117.361,3.2,3.2,0,0,1-12.577-120.535ZM-.629-50.02A3.136,3.136,0,0,1-3.851-47a3.134,3.134,0,0,1-2.961-3.273A3.134,3.134,0,0,1-3.7-53.191,3.13,3.13,0,0,1-.629-50.02Zm-197.219-5.755a3.2,3.2,0,0,1-3.175,3.072,3.2,3.2,0,0,1-3.073-3.175,3.2,3.2,0,0,1,3.175-3.072A3.2,3.2,0,0,1-197.848-55.775ZM-15.465-16.533a2.908,2.908,0,0,1-2.947,2.984,2.919,2.919,0,0,1-3.035-3.1,2.913,2.913,0,0,1,3.05-2.882A2.907,2.907,0,0,1-15.465-16.533ZM-53.114,14.925a2.909,2.909,0,0,1-2.895,3.036A2.919,2.919,0,0,1-59.1,14.914a2.907,2.907,0,0,1,3-2.934A2.908,2.908,0,0,1-53.114,14.925ZM-2.593-96.4A2.872,2.872,0,0,1,.426-99.3a2.872,2.872,0,0,1,2.905,3.019,2.875,2.875,0,0,1-3.019,2.9A2.872,2.872,0,0,1-2.593-96.4ZM-171.58-157.718a2.847,2.847,0,0,1,2.93-2.943,2.849,2.849,0,0,1,2.944,2.93,2.849,2.849,0,0,1-2.93,2.944A2.849,2.849,0,0,1-171.58-157.718ZM-77.313,24.376a2.848,2.848,0,0,1-2.93,2.944,2.849,2.849,0,0,1-2.944-2.93,2.849,2.849,0,0,1,2.93-2.944A2.849,2.849,0,0,1-77.313,24.376Zm-57.676-4.737a2.889,2.889,0,0,1-3.128,2.795,2.888,2.888,0,0,1-2.8-3.128,2.888,2.888,0,0,1,3.128-2.795A2.888,2.888,0,0,1-134.989,19.639ZM-2.014-38.632A2.849,2.849,0,0,1-4.958-35.7a2.849,2.849,0,0,1-2.93-2.944,2.848,2.848,0,0,1,2.944-2.93A2.849,2.849,0,0,1-2.014-38.632Zm-195.756-86.278a2.855,2.855,0,0,1,2.86-3.014,2.853,2.853,0,0,1,3.014,2.86,2.854,2.854,0,0,1-2.859,3.014A2.855,2.855,0,0,1-197.771-124.909Zm62.612-52.885a2.85,2.85,0,0,1,2.954-2.92,2.85,2.85,0,0,1,2.92,2.954,2.849,2.849,0,0,1-2.954,2.92A2.85,2.85,0,0,1-135.158-177.794Zm80.644,7.371a2.852,2.852,0,0,1,2.771-2.9,2.86,2.86,0,0,1,3.051,2.822,2.854,2.854,0,0,1-2.873,3A2.854,2.854,0,0,1-54.514-170.423ZM-146.55,18.32a2.912,2.912,0,0,1-2.935,2.783,2.911,2.911,0,0,1-2.783-2.936,2.908,2.908,0,0,1,2.935-2.782A2.91,2.91,0,0,1-146.55,18.32Zm-12.727-186.339a2.847,2.847,0,0,1,2.822-2.848,2.853,2.853,0,0,1,3,2.873,2.855,2.855,0,0,1-2.924,2.95A2.855,2.855,0,0,1-159.278-168.018ZM-1.672-107.869a2.911,2.911,0,0,1,2.93-2.788,2.911,2.911,0,0,1,2.788,2.929,2.911,2.911,0,0,1-2.93,2.788A2.91,2.91,0,0,1-1.672-107.869ZM-178.862-7.526A2.871,2.871,0,0,1-181.7-4.661a2.873,2.873,0,0,1-2.915-2.989,2.875,2.875,0,0,1,2.938-2.763A2.871,2.871,0,0,1-178.862-7.526ZM-21.741-144.719a2.887,2.887,0,0,1,2.915-2.786,2.891,2.891,0,0,1,2.837,2.864,2.891,2.891,0,0,1-3.017,2.888A2.894,2.894,0,0,1-21.741-144.719ZM-184.226-147a2.856,2.856,0,0,1,2.917-2.978,2.849,2.849,0,0,1,2.876,2.815,2.854,2.854,0,0,1-2.917,2.978A2.85,2.85,0,0,1-184.226-147Zm151.862-10.061a2.925,2.925,0,0,1,3.017-2.7,2.924,2.924,0,0,1,2.7,3.017,2.924,2.924,0,0,1-3.017,2.7A2.924,2.924,0,0,1-32.364-157.064ZM-198.894-44.312a2.848,2.848,0,0,1-2.85,2.841,2.856,2.856,0,0,1-2.943-2.748,2.86,2.86,0,0,1,2.851-3.045A2.854,2.854,0,0,1-198.894-44.312Zm133.314,70a2.9,2.9,0,0,1-2.977,2.726,2.915,2.915,0,0,1-2.627-2.873,2.9,2.9,0,0,1,2.977-2.726A2.914,2.914,0,0,1-65.58,25.684ZM-2.949-27.211a2.857,2.857,0,0,1-2.839,2.835A2.754,2.754,0,0,1-8.573-27.05,2.856,2.856,0,0,1-5.85-30,2.917,2.917,0,0,1-2.949-27.211Zm-85.013-158a2.9,2.9,0,0,1,2.97-2.734,2.918,2.918,0,0,1,2.634,2.867,2.9,2.9,0,0,1-2.97,2.734A2.92,2.92,0,0,1-87.962-185.21Zm-11.464-.948a2.757,2.757,0,0,1,2.855-2.617,2.862,2.862,0,0,1,2.782,2.91,2.931,2.931,0,0,1-2.976,2.731A2.868,2.868,0,0,1-99.426-186.157ZM-212.368-91.519a2.9,2.9,0,0,1,2.992-2.708,2.909,2.909,0,0,1,2.611,2.887,2.9,2.9,0,0,1-2.993,2.708A2.908,2.908,0,0,1-212.368-91.519Zm4.785,11.6a2.9,2.9,0,0,1-2.748,2.754,2.9,2.9,0,0,1-2.856-2.85,2.9,2.9,0,0,1,2.749-2.754A2.9,2.9,0,0,1-207.583-79.923ZM-11.026-132.2a2.756,2.756,0,0,1,2.908-2.557A2.869,2.869,0,0,1-5.4-131.786a2.936,2.936,0,0,1-3.036,2.667A2.866,2.866,0,0,1-11.026-132.2ZM-29.158,5.6A2.9,2.9,0,0,1-31.9,8.36a2.9,2.9,0,0,1-2.859-2.847,2.9,2.9,0,0,1,2.745-2.757A2.9,2.9,0,0,1-29.158,5.6ZM-189.536-20.291a2.912,2.912,0,0,1-2.775,2.911,2.912,2.912,0,0,1-2.911-2.775,2.913,2.913,0,0,1,2.775-2.911A2.913,2.913,0,0,1-189.536-20.291Zm20.857,25.07A2.86,2.86,0,0,1-171.6,7.552,2.756,2.756,0,0,1-174.32,4.8a2.859,2.859,0,0,1,2.8-2.89A2.919,2.919,0,0,1-168.679,4.779Zm22.205-183.339a2.882,2.882,0,0,1,2.86-2.828,2.891,2.891,0,0,1,2.727,2.758,2.882,2.882,0,0,1-2.859,2.828A2.89,2.89,0,0,1-146.473-178.56Zm-62.4,110.1a2.822,2.822,0,0,1-2.787,2.689,2.823,2.823,0,0,1-2.689-2.787,2.822,2.822,0,0,1,2.787-2.688A2.822,2.822,0,0,1-208.874-68.463Zm167,84.243a2.865,2.865,0,0,1-2.714,2.782A2.856,2.856,0,0,1-47.419,15.7,2.866,2.866,0,0,1-44.6,13.015,2.865,2.865,0,0,1-41.873,15.78Zm-.535-185.225a2.682,2.682,0,0,1,2.574-2.834,2.728,2.728,0,0,1,2.784,2.639,2.668,2.668,0,0,1-2.689,2.72A2.582,2.582,0,0,1-42.408-169.445Zm-168.7,66.479a2.865,2.865,0,0,1,2.8-2.7,2.865,2.865,0,0,1,2.746,2.75,2.865,2.865,0,0,1-2.7,2.8A2.863,2.863,0,0,1-211.111-102.965Zm135.057-80.958a2.852,2.852,0,0,1,2.72-2.754,2.855,2.855,0,0,1,2.8,2.669,2.864,2.864,0,0,1-2.619,2.855A2.855,2.855,0,0,1-76.054-183.923Zm-120.731,47.3a2.873,2.873,0,0,1,2.9-2.6,2.875,2.875,0,0,1,2.647,2.848,2.864,2.864,0,0,1-2.8,2.7A2.875,2.875,0,0,1-196.786-136.621Zm-3.562,103.81a2.677,2.677,0,0,1-2.82,2.588,2.728,2.728,0,0,1-2.528-2.886,2.658,2.658,0,0,1,2.925-2.456A2.565,2.565,0,0,1-200.348-32.811ZM-16.536-5.031a2.823,2.823,0,0,1-2.789,2.687,2.822,2.822,0,0,1-2.687-2.789A2.822,2.822,0,0,1-19.223-7.82,2.822,2.822,0,0,1-16.536-5.031ZM-110.845-187.38a2.874,2.874,0,0,1,2.909-2.582A2.877,2.877,0,0,1-105.3-187.1a2.866,2.866,0,0,1-2.812,2.683A2.872,2.872,0,0,1-110.845-187.38ZM12.4-72.189A2.5,2.5,0,0,1,9.824-69.6,2.5,2.5,0,0,1,7.184-72.3a2.4,2.4,0,0,1,2.655-2.478A2.462,2.462,0,0,1,12.4-72.189Zm-1.25,11.382A2.5,2.5,0,0,1,8.472-58.14a2.439,2.439,0,0,1-2.516-2.628,2.555,2.555,0,0,1,2.728-2.578A2.451,2.451,0,0,1,11.151-60.807Zm-133.284-127.3a2.5,2.5,0,0,1,2.847-2.483,2.4,2.4,0,0,1,2.328,2.781,2.461,2.461,0,0,1-2.709,2.42A2.509,2.509,0,0,1-122.133-188.107ZM-.591-119.379a2.561,2.561,0,0,1,2.8-2.483,2.454,2.454,0,0,1,2.4,2.625,2.5,2.5,0,0,1-2.77,2.573A2.445,2.445,0,0,1-.591-119.379Zm-209.486,4.947a2.342,2.342,0,0,1,2.643-2.474,2.436,2.436,0,0,1,2.518,2.562c-.192,1.686-1.067,2.608-2.689,2.556A2.337,2.337,0,0,1-210.077-114.432Zm51.768,131.86a2.335,2.335,0,0,1-2.561,2.555,2.335,2.335,0,0,1-2.556-2.559,2.432,2.432,0,0,1,2.561-2.594A2.431,2.431,0,0,1-158.309,17.428Zm45.077,15.587a2.5,2.5,0,0,1-2.621,2.559,2.5,2.5,0,0,1-2.6-2.75,2.409,2.409,0,0,1,2.7-2.434A2.462,2.462,0,0,1-113.232,33.015Zm11.806,1.22a2.432,2.432,0,0,1-2.588,2.565,2.432,2.432,0,0,1-2.53-2.628,2.335,2.335,0,0,1,2.589-2.526A2.336,2.336,0,0,1-101.426,34.236Zm-68.941-203.469a2.449,2.449,0,0,1,2.643-2.483,2.357,2.357,0,0,1,2.433,2.481,2.447,2.447,0,0,1-2.533,2.594A2.475,2.475,0,0,1-170.367-169.233ZM13.142-83.62a2.473,2.473,0,0,1-2.627,2.508A2.452,2.452,0,0,1,8.067-83.79a2.358,2.358,0,0,1,2.516-2.4A2.449,2.449,0,0,1,13.142-83.62Zm-77.508-99.335a2.453,2.453,0,0,1,2.441-2.684,2.475,2.475,0,0,1,2.634,2.5,2.449,2.449,0,0,1-2.552,2.574A2.357,2.357,0,0,1-64.366-182.954Zm-145.522,126.2A2.48,2.48,0,0,1-212.37-54.1a2.446,2.446,0,0,1-2.594-2.533,2.359,2.359,0,0,1,2.372-2.542A2.456,2.456,0,0,1-209.889-56.756Zm27.245-101.907a2.457,2.457,0,0,1,2.712-2.411,2.359,2.359,0,0,1,2.363,2.55,2.444,2.444,0,0,1-2.6,2.524A2.481,2.481,0,0,1-182.643-158.663Zm152-9.9a2.384,2.384,0,0,1,2.474-2.233c1.443.285,2.392,1.108,2.267,2.623a2.216,2.216,0,0,1-2.464,2.18A2.238,2.238,0,0,1-30.647-168.559ZM-201.472-21.085a2.218,2.218,0,0,1-2.422,2.4A2.223,2.223,0,0,1-206.2-21.2a2.384,2.384,0,0,1,2.374-2.266C-202.413-23.237-201.477-22.48-201.472-21.085ZM14.282-95.149a2.479,2.479,0,0,1-2.6,2.511,2.35,2.35,0,0,1-2.314-2.337,2.392,2.392,0,0,1,2.468-2.592A2.324,2.324,0,0,1,14.282-95.149Zm-68.713,121.6a2.281,2.281,0,0,1-2.563,2.473,2.262,2.262,0,0,1-2.424-2.412c-.044-1.622.891-2.442,2.458-2.622C-55.38,24.032-54.411,24.822-54.431,26.449ZM9-37.83c-.251,1.548-1.039,2.492-2.567,2.438a2.244,2.244,0,0,1-2.355-2.5,2.246,2.246,0,0,1,2.5-2.357A2.423,2.423,0,0,1,9-37.83Zm-166.6-141.537a2.389,2.389,0,0,1,2.561-2.5,2.291,2.291,0,0,1,2.339,2.508c-.026,1.52-.977,2.271-2.451,2.441A2.431,2.431,0,0,1-157.595-179.368ZM-9.862-143.309a2.388,2.388,0,0,1,2.513-2.547,2.29,2.29,0,0,1,2.388,2.462,2.387,2.387,0,0,1-2.391,2.488A2.435,2.435,0,0,1-9.862-143.309ZM-20.5-156.349a2.3,2.3,0,0,1,2.661-2.183c1.518.126,2.222,1.117,2.283,2.65a2.426,2.426,0,0,1-2.605,2.258A2.393,2.393,0,0,1-20.5-156.349ZM-180.484,3.969c-.218,1.465-1,2.416-2.525,2.38a2.243,2.243,0,0,1-2.383-2.471,2.243,2.243,0,0,1,2.469-2.385C-181.4,1.513-180.646,2.485-180.484,3.969ZM-52.769-181.995a2.231,2.231,0,0,1,2.369-2.272,2.427,2.427,0,0,1,2.49,2.337c-.241,1.546-1.032,2.513-2.54,2.454A2.24,2.24,0,0,1-52.769-181.995ZM-210.855-45.2a2.239,2.239,0,0,1-2.427,2.413,2.228,2.228,0,0,1-2.363-2.278c-.071-1.51.875-2.313,2.329-2.569C-211.849-47.469-210.86-46.711-210.855-45.2Zm20.11,36.4a2.379,2.379,0,0,1-2.335,2.535,2.431,2.431,0,0,1-2.577-2.361,2.388,2.388,0,0,1,2.474-2.6A2.287,2.287,0,0,1-190.746-8.8ZM-208.718-125.78a2.242,2.242,0,0,1,2.4-2.452c1.529-.024,2.3.931,2.506,2.4-.175,1.478-.931,2.446-2.458,2.453A2.242,2.242,0,0,1-208.718-125.78ZM10.276-49.291c-.156,1.574-.955,2.537-2.58,2.5a2.282,2.282,0,0,1-2.453-2.582,2.263,2.263,0,0,1,2.431-2.4C9.3-51.805,10.108-50.862,10.276-49.291ZM-4.457-15.661c-.191,1.559-1.02,2.5-2.639,2.431a2.285,2.285,0,0,1-2.393-2.641A2.263,2.263,0,0,1-7-18.217C-5.371-18.212-4.589-17.247-4.457-15.661ZM-133.42-189.224a2.243,2.243,0,0,1,2.414-2.44,2.421,2.421,0,0,1,2.508,2.307c-.2,1.585-.957,2.55-2.485,2.549A2.242,2.242,0,0,1-133.42-189.224Zm-2.853,220.161a2.432,2.432,0,0,1-2.45,2.45,2.39,2.39,0,0,1-2.5-2.561,2.291,2.291,0,0,1,2.508-2.34C-137.2,28.513-136.443,29.464-136.273,30.937ZM-124.8,32.16c-.007,1.639-.975,2.432-2.576,2.554a2.435,2.435,0,0,1-2.461-2.659,2.416,2.416,0,0,1,2.677-2.418A2.315,2.315,0,0,1-124.8,32.16Zm-70.446-179.936a2.39,2.39,0,0,1,2.478-2.581,2.288,2.288,0,0,1,2.422,2.428,2.386,2.386,0,0,1-2.347,2.52A2.438,2.438,0,0,1-195.243-147.776ZM-90.03,34.892A2.432,2.432,0,0,1-92.3,37.571c-1.716-.123-2.706-.889-2.716-2.518a2.281,2.281,0,0,1,2.513-2.524A2.272,2.272,0,0,1-90.03,34.892Zm11.436,1.029c-.24,1.448-1.027,2.395-2.545,2.34a2.242,2.242,0,0,1-2.347-2.49A2.242,2.242,0,0,1-81,33.421C-79.486,33.46-78.74,34.439-78.593,35.921Zm-69.347-5.848a2.2,2.2,0,0,1-2.106,2.285,2.1,2.1,0,0,1-2.43-2.166,2.1,2.1,0,0,1,2.269-2.333A2.207,2.207,0,0,1-147.941,30.073Zm-22.03-13.5c-.222,1.462-1,2.368-2.4,2.333a2.159,2.159,0,0,1-2.252-2.349,2.165,2.165,0,0,1,2.349-2.254A2.316,2.316,0,0,1-169.97,16.575ZM-30.436,17a2.357,2.357,0,0,1-2.286,2.411,2.434,2.434,0,0,1-2.417-2.268,2.4,2.4,0,0,1,2.388-2.481A2.264,2.264,0,0,1-30.436,17ZM-18.129,6.544a2.394,2.394,0,0,1-2.424,2.193,2.378,2.378,0,0,1-2.3-2.559,2.339,2.339,0,0,1,2.5-2.161A2.477,2.477,0,0,1-18.129,6.544ZM.932-130.765a2.3,2.3,0,0,1,2.332-2.3,2.3,2.3,0,0,1,2.271,2.4,2.16,2.16,0,0,1-2.351,2.25A2.161,2.161,0,0,1,.932-130.765Zm14.042,23.773a2.267,2.267,0,0,1-2.353,2.3,2.148,2.148,0,0,1-2.262-2.36,2.136,2.136,0,0,1,2.21-2.212A2.282,2.282,0,0,1,14.974-106.992Zm-183.616-73.726a1.877,1.877,0,0,1,2.121-1.969c1.3.041,1.918.859,2.01,2.143a1.98,1.98,0,0,1-2.163,1.949A1.878,1.878,0,0,1-168.641-180.718Zm-12.736,10.7a1.913,1.913,0,0,1,2.211-2.08,1.968,1.968,0,0,1,2.01,2.115,1.966,1.966,0,0,1-2.041,2.077A1.913,1.913,0,0,1-181.377-170.017Zm-12.628,10.286a1.875,1.875,0,0,1,2-2.079c1.292-.033,1.946.755,2.122,1.993-.126,1.254-.751,2.066-2.042,2.083A1.874,1.874,0,0,1-194.005-159.73Zm-25.73,79.009a1.922,1.922,0,0,1-2.225,2.039,1.9,1.9,0,0,1-1.991-2.075,2,2,0,0,1,2.128-2.172A1.989,1.989,0,0,1-219.736-80.721Zm231.6-37.7c-.019-1.279.808-1.916,2.042-2.078,1.226.2,2.026.863,1.978,2.144a1.864,1.864,0,0,1-1.943,1.927A1.875,1.875,0,0,1,11.865-118.421ZM-212.4-33.776c.023,1.386-.782,2.059-2.121,2.159a1.967,1.967,0,0,1-2.032-2.062,1.9,1.9,0,0,1,2.128-2.124A1.876,1.876,0,0,1-212.4-33.776ZM7.857-25.906a2.053,2.053,0,0,1-2.2,2.15A2.058,2.058,0,0,1,3.521-26a1.98,1.98,0,0,1,2.214-2.12A1.98,1.98,0,0,1,7.857-25.906Zm-215.47-111.837a1.946,1.946,0,0,1,2.21-2.069,1.947,1.947,0,0,1,2.069,2.209,2.015,2.015,0,0,1-2.208,2.1A2.017,2.017,0,0,1-207.613-137.742Zm-10.108,33.679a1.876,1.876,0,0,1-2.028,2.023,1.907,1.907,0,0,1-2.125-2.127,1.989,1.989,0,0,1,1.9-2.069C-218.5-106.124-217.7-105.449-217.721-104.063ZM-5.652-3.681A2.023,2.023,0,0,1-7.985-1.716,1.955,1.955,0,0,1-9.952-4.023,1.955,1.955,0,0,1-7.646-5.992,2.025,2.025,0,0,1-5.652-3.681ZM-218.886-92.169a2,2,0,0,1-2.258,2.029,1.9,1.9,0,0,1-1.989-2.077A1.92,1.92,0,0,1-221-94.356C-219.614-94.35-218.959-93.527-218.886-92.169Zm-2.1,22.886a1.98,1.98,0,0,1-2.129,2,1.876,1.876,0,0,1-2-2.087,1.876,1.876,0,0,1,2.086-2.006C-221.725-71.359-221.1-70.551-220.982-69.282ZM-43.3,27.645A2.015,2.015,0,0,1-45.451,29.8,1.945,1.945,0,0,1-47.6,27.67a1.945,1.945,0,0,1,2.126-2.154A2.016,2.016,0,0,1-43.3,27.645Zm-116.372,1.207A1.877,1.877,0,0,1-161.7,30.9a1.874,1.874,0,0,1-2-1.887,2.057,2.057,0,0,1,1.806-2.212C-160.518,26.938-159.683,27.562-159.668,28.852Zm50.335-227.49a1.9,1.9,0,0,1,2.166-2.085,1.97,1.97,0,0,1,2.02,2.084,1.979,1.979,0,0,1-2.2,2.067A1.876,1.876,0,0,1-109.333-198.638Zm11.8,1.264a1.946,1.946,0,0,1,2.1-2.185,1.95,1.95,0,0,1,2.186,2.094,2.011,2.011,0,0,1-2.036,2.217C-96.69-195.331-97.511-196-97.531-197.374Zm11.492.653a1.9,1.9,0,0,1,2.076-1.99,2,2,0,0,1,2.171,2.128A1.989,1.989,0,0,1-84-194.494,1.921,1.921,0,0,1-86.039-196.721Zm11.519.9a1.876,1.876,0,0,1,2.087-2,1.875,1.875,0,0,1,2.005,2.086c-.018,1.3-.826,1.931-2.094,2.047A1.98,1.98,0,0,1-74.52-195.824Zm-70.48,5.74a1.946,1.946,0,0,1,2.17-2.11,2.014,2.014,0,0,1,2.137,2.167,2.016,2.016,0,0,1-2.2,2.114A1.946,1.946,0,0,1-145-190.084Zm104.008,9.012a1.876,1.876,0,0,1,2-2.054,1.98,1.98,0,0,1,2.189,2.082,1.968,1.968,0,0,1-2.032,2.069A1.9,1.9,0,0,1-40.993-181.073ZM-67.441,37.055a2.055,2.055,0,0,1-2.158,2.21,2.053,2.053,0,0,1-2.179-2.183A1.979,1.979,0,0,1-69.623,34.9,1.979,1.979,0,0,1-67.441,37.055ZM-221.948-57.822a1.83,1.83,0,0,1-1.992,1.889,1.831,1.831,0,0,1-1.891-1.991,1.972,1.972,0,0,1,1.981-1.937C-222.693-59.649-221.909-59-221.948-57.822Zm29.511,60.611a1.851,1.851,0,0,1-1.983,1.893A1.873,1.873,0,0,1-196.413,2.6c.04-1.165.835-1.781,2-1.943C-193.2.849-192.379,1.509-192.436,2.789Zm-10.64-12.333c-.211,1.157-.858,1.94-2.038,1.9A1.831,1.831,0,0,1-207-9.634a1.832,1.832,0,0,1,1.991-1.891A1.973,1.973,0,0,1-203.077-9.544ZM21.99-59.569a1.867,1.867,0,0,1-2.019,2.036,1.846,1.846,0,0,1-1.938-1.918c-.029-1.265.8-1.912,2-2.088C21.181-61.345,21.975-60.729,21.99-59.569ZM-120.7-199.406a1.871,1.871,0,0,1,2.028-2.049c1.175,0,1.8.794,2,1.945-.161,1.219-.8,2.05-2.081,2.033A1.85,1.85,0,0,1-120.7-199.406ZM-8.163-154.944a1.863,1.863,0,0,1,2.168-1.9,2,2,0,0,1,1.851,2.076c-.216,1.122-.841,1.91-2.018,1.9A1.862,1.862,0,0,1-8.163-154.944ZM-62.969-194.51a1.849,1.849,0,0,1,2.058-2,1.841,1.841,0,0,1,1.853,2.005,2,2,0,0,1-1.962,1.949C-62.157-192.73-62.963-193.35-62.969-194.51ZM-103.26,45.761a1.982,1.982,0,0,1-1.994,1.9c-1.137-.206-1.918-.836-1.915-2a1.837,1.837,0,0,1,1.9-1.954A1.848,1.848,0,0,1-103.26,45.761Zm84.5-213.489a1.841,1.841,0,0,1,2.079-1.774,2,2,0,0,1,1.868,2.033c-.229,1.129-.869,1.924-2.034,1.876A1.848,1.848,0,0,1-18.765-167.728ZM-114.693,44.53a1.847,1.847,0,0,1-1.972,1.882,1.868,1.868,0,0,1-1.983-2.072,2.007,2.007,0,0,1,1.992-1.933C-115.458,42.605-114.637,43.263-114.693,44.53Zm58.545-6.7a1.982,1.982,0,0,1-1.887,2.01A1.848,1.848,0,0,1-60.1,37.853a1.838,1.838,0,0,1,1.937-1.923C-57,35.916-56.365,36.694-56.148,37.829ZM6.464-14.495c-.173,1.136-.792,1.944-1.951,1.954a1.849,1.849,0,0,1-2-2.051,1.84,1.84,0,0,1,2-1.86A2,2,0,0,1,6.464-14.495ZM-220.957-115.6c-.007-1.162.781-1.787,1.923-2,1.208.153,2.039.79,2.034,2.055a1.846,1.846,0,0,1-1.9,1.951A1.868,1.868,0,0,1-220.957-115.6ZM23.218-71.393a1.857,1.857,0,0,1-2.062,1.99,1.858,1.858,0,0,1-1.89-2.156,2,2,0,0,1,2.06-1.841C22.444-73.182,23.231-72.558,23.218-71.393ZM-19.471,17.959a1.8,1.8,0,0,1-1.873,1.753,1.812,1.812,0,0,1-1.826-2A1.716,1.716,0,0,1-21.3,15.983,1.74,1.74,0,0,1-19.471,17.959Zm-72.44,28.7a1.81,1.81,0,0,1-1.863,1.708c-1.234-.186-1.92-.872-1.824-2.058a1.712,1.712,0,0,1,1.919-1.675A1.738,1.738,0,0,1-91.91,46.656ZM-126.219,43.7a1.794,1.794,0,0,1-1.846,1.824,1.8,1.8,0,0,1-1.973-1.9,1.915,1.915,0,0,1,1.928-1.964A1.93,1.93,0,0,1-126.219,43.7ZM24.008-82.877a1.913,1.913,0,0,1-1.932,1.949,1.806,1.806,0,0,1-1.929-1.941,1.794,1.794,0,0,1,1.793-1.876C23.125-84.811,23.8-84.063,24.008-82.877ZM-181.835,15.387c-.176,1.169-.828,1.946-2.012,1.9a1.8,1.8,0,0,1-1.848-2.021,1.8,1.8,0,0,1,1.871-1.8A1.931,1.931,0,0,1-181.835,15.387ZM21.072-47.989A1.818,1.818,0,0,1,19-46.212a1.709,1.709,0,0,1-1.656-1.934,1.736,1.736,0,0,1,2.044-1.745A1.8,1.8,0,0,1,21.072-47.989ZM-206.1-149.226a1.736,1.736,0,0,1,2.044-1.745,1.8,1.8,0,0,1,1.685,1.9,1.819,1.819,0,0,1-2.073,1.777A1.708,1.708,0,0,1-206.1-149.226ZM2.143-142.578a1.915,1.915,0,0,1,1.935-1.955c1.183.2,1.933.862,1.884,2.046a1.793,1.793,0,0,1-1.855,1.815A1.8,1.8,0,0,1,2.143-142.578Zm-158.286-48.55a1.706,1.706,0,0,1,1.821-1.981,1.762,1.762,0,0,1,1.853,1.814,1.76,1.76,0,0,1-1.749,1.843A1.69,1.69,0,0,1-156.143-191.128Zm24.245-9.731a1.547,1.547,0,0,1,1.738-1.562,1.62,1.62,0,0,1,1.731,1.79,1.619,1.619,0,0,1-1.863,1.664A1.577,1.577,0,0,1-131.9-200.86ZM-32.26,28.463A1.613,1.613,0,0,1-34.046,30.2a1.573,1.573,0,0,1-1.688-1.816,1.548,1.548,0,0,1,1.665-1.639A1.62,1.62,0,0,1-32.26,28.463ZM25.033-94.351A1.62,1.62,0,0,1,23.3-92.565a1.548,1.548,0,0,1-1.734-1.567,1.577,1.577,0,0,1,1.612-1.887A1.619,1.619,0,0,1,25.033-94.351ZM-7.294,7.48c-.047,1.181-.594,1.84-1.738,1.853a1.548,1.548,0,0,1-1.734-1.567A1.579,1.579,0,0,1-9.155,5.878,1.614,1.614,0,0,1-7.294,7.48ZM-219.479-127a1.619,1.619,0,0,1,1.742-1.784,1.615,1.615,0,0,1,1.713,1.811,1.575,1.575,0,0,1-1.84,1.663A1.55,1.55,0,0,1-219.479-127Zm81.638,169.372a1.614,1.614,0,0,1-1.786,1.739,1.574,1.574,0,0,1-1.688-1.816,1.548,1.548,0,0,1,1.665-1.638A1.62,1.62,0,0,1-137.841,42.377Zm150.9-172.335a1.5,1.5,0,0,1,1.7-1.573c1.033.035,1.531.688,1.606,1.709a1.589,1.589,0,0,1-1.729,1.56A1.5,1.5,0,0,1,13.059-129.958ZM5.208-3.114c-.119.946-.614,1.6-1.555,1.6A1.449,1.449,0,0,1,2.118-3.077,1.442,1.442,0,0,1,3.532-4.559C4.486-4.627,4.994-3.99,5.208-3.114ZM-218.355-138.493a1.337,1.337,0,0,1,1.573-1.414,1.324,1.324,0,0,1,1.273,1.518,1.392,1.392,0,0,1-1.442,1.343C-217.832-137.161-218.372-137.647-218.355-138.493ZM25.7-105.709a1.59,1.59,0,0,1-1.6,1.517,1.461,1.461,0,0,1-1.555-1.511,1.472,1.472,0,0,1,1.656-1.6A1.572,1.572,0,0,1,25.7-105.709Zm-5.664,69.2a1.509,1.509,0,0,1-1.7,1.578,1.579,1.579,0,0,1-1.654-1.649,1.573,1.573,0,0,1,1.626-1.678A1.529,1.529,0,0,1,20.036-36.506ZM-143.078-201.664a1.366,1.366,0,0,1,1.547-1.3,1.464,1.464,0,0,1,1.381,1.434c-.139.923-.633,1.49-1.485,1.471A1.373,1.373,0,0,1-143.078-201.664ZM-171.9,28.082c-.151.995-.681,1.645-1.716,1.594a1.5,1.5,0,0,1-1.546-1.726,1.49,1.49,0,0,1,1.577-1.5C-172.551,26.441-172.032,27.083-171.9,28.082Zm-8.084-209.432c-.063-.947.549-1.478,1.483-1.671a1.548,1.548,0,0,1,1.56,1.551,1.449,1.449,0,0,1-1.562,1.534A1.441,1.441,0,0,1-179.987-181.349ZM18.623-25.119a1.435,1.435,0,0,1-1.44,1.436A1.374,1.374,0,0,1,15.7-25.25a1.363,1.363,0,0,1,1.514-1.338A1.451,1.451,0,0,1,18.623-25.119ZM-29.131-180.091a1.539,1.539,0,0,1,1.682-1.816,1.525,1.525,0,0,1,1.671,1.634,1.618,1.618,0,0,1-1.391,1.743C-28.394-178.559-29.068-179.042-29.131-180.091ZM-223.475-46.4c0,1.048-.637,1.561-1.65,1.663a1.58,1.58,0,0,1-1.632-1.682,1.5,1.5,0,0,1,1.651-1.631A1.5,1.5,0,0,1-223.475-46.4Zm9.856,24.149a1.541,1.541,0,0,1-1.84,1.657,1.523,1.523,0,0,1-1.511-1.785,1.59,1.59,0,0,1,1.752-1.585A1.575,1.575,0,0,1-213.62-22.256Zm168.487,61.32a1.547,1.547,0,0,1-1.538,1.571,1.449,1.449,0,0,1-1.546-1.551,1.44,1.44,0,0,1,1.4-1.492C-45.867,37.521-45.333,38.133-45.133,39.065ZM-149.9,41.6c-.18.933-.711,1.562-1.655,1.49a1.45,1.45,0,0,1-1.426-1.665,1.446,1.446,0,0,1,1.515-1.381A1.567,1.567,0,0,1-149.9,41.6Zm98.7-235.327a1.512,1.512,0,0,1,1.631-1.655,1.627,1.627,0,0,1,1.7,1.47c-.117,1.18-.632,1.816-1.679,1.816A1.5,1.5,0,0,1-51.2-193.727Zm-141.055,22.691a1.446,1.446,0,0,1,1.367-1.711c.943-.112,1.485.518,1.7,1.444a1.563,1.563,0,0,1-1.515,1.6A1.441,1.441,0,0,1-192.252-171.036ZM-80.631,47.8a1.585,1.585,0,0,1-1.715,1.6,1.573,1.573,0,0,1-1.613-1.684,1.532,1.532,0,0,1,1.808-1.665A1.514,1.514,0,0,1-80.631,47.8Zm11.626.712a1.339,1.339,0,0,1-1.56,1.431,1.325,1.325,0,0,1-1.287-1.507,1.4,1.4,0,0,1,1.46-1.356A1.383,1.383,0,0,1-69.005,48.516Zm73-202.424A1.187,1.187,0,0,1,5.3-155.332a1.159,1.159,0,0,1,1.274,1.259,1.2,1.2,0,0,1-1.205,1.334C4.571-152.738,4.046-153.095,3.992-153.909ZM-118.532-211.5a1,1,0,0,1,1.156-.895,1.094,1.094,0,0,1,.967,1.1c-.134.616-.489,1.048-1.095,1.015A1.007,1.007,0,0,1-118.532-211.5ZM-193.933,14.6c-.1.867-.558,1.29-1.358,1.257a1.189,1.189,0,0,1-1.232-1.49,1.171,1.171,0,0,1,1.43-1.09A1.2,1.2,0,0,1-193.933,14.6Zm26.864-206.646a1.185,1.185,0,0,1,1.393-1.338,1.162,1.162,0,0,1,1.189,1.342,1.19,1.19,0,0,1-1.289,1.251A1.188,1.188,0,0,1-167.069-192.051Zm71.25-17.2a1.136,1.136,0,0,1,1.21-1.284,1.177,1.177,0,0,1,1.305,1.109c-.044.889-.428,1.368-1.233,1.387A1.131,1.131,0,0,1-95.819-209.252ZM-8.664,19.023c-.184.738-.554,1.228-1.246,1.183A1.09,1.09,0,0,1-11,19.014a1.1,1.1,0,0,1,1.192-1.1C-9.121,17.947-8.811,18.471-8.664,19.023ZM-17.2-179.06a1.184,1.184,0,0,1,1.151-1.17,1.185,1.185,0,0,1,1.248,1.082,1.121,1.121,0,0,1-1.154,1.34A1.117,1.117,0,0,1-17.2-179.06Zm-90.031-31.1a1.185,1.185,0,0,1,1.151-1.17,1.185,1.185,0,0,1,1.248,1.083,1.12,1.12,0,0,1-1.154,1.34A1.117,1.117,0,0,1-107.232-210.162ZM-215.28-10.933c-.11.87-.516,1.361-1.317,1.323a1.105,1.105,0,0,1-1.126-1.175,1.133,1.133,0,0,1,1.275-1.229C-215.732-12-215.437-11.474-215.28-10.933Zm176.3-181.709a1.167,1.167,0,0,1,1.37-1.16,1.189,1.189,0,0,1,1.229,1.192c-.064.935-.485,1.391-1.293,1.392A1.186,1.186,0,0,1-38.977-192.642ZM-224.644-34.492a1.181,1.181,0,0,1-1.3,1.224,1.177,1.177,0,0,1-1.262-1.44,1.157,1.157,0,0,1,1.384-1.117A1.185,1.185,0,0,1-224.644-34.492Zm-4.738-81.916a1.011,1.011,0,0,1-1.189,1.066,1.009,1.009,0,0,1-.926-1.136,1.129,1.129,0,0,1,1.026-1C-229.8-117.359-229.371-117.01-229.382-116.407ZM-21.4,29.658c.04.692-.447,1.062-1.106,1.222a1.194,1.194,0,0,1-1.18-1.131,1.091,1.091,0,0,1,1.1-1.188A1.091,1.091,0,0,1-21.4,29.658Zm-162.464-2.865a1.091,1.091,0,0,1-1.1,1.187,1.1,1.1,0,0,1-1.19-1.1c-.052-.714.5-1.019,1.02-1.233C-184.381,25.75-183.9,26.12-183.869,26.793ZM-231.236-93.444a1.131,1.131,0,0,1-1.278,1.215,1.134,1.134,0,0,1-1.217-1.278,1.18,1.18,0,0,1,1.159-1.243C-231.663-94.663-231.215-94.245-231.236-93.444Zm1.185-11.461a1.247,1.247,0,0,1-1.033,1.209c-.878-.074-1.378-.466-1.373-1.265a1.105,1.105,0,0,1,1.13-1.172A1.134,1.134,0,0,1-230.051-104.905Zm247.435,91.2c.049.608-.385.965-.994,1.113a1.091,1.091,0,0,1-1.115-.947,1,1,0,0,1,.875-1.169A1,1,0,0,1,17.383-13.708ZM-233.349-70.05a1.107,1.107,0,0,1-1.228,1.087,1.207,1.207,0,0,1-1.164-1.184c.1-.686.466-1.172,1.161-1.184A1.115,1.115,0,0,1-233.349-70.05Zm1.3-12a1.131,1.131,0,0,1-1.211,1.282,1.13,1.13,0,0,1-1.282-1.211,1.173,1.173,0,0,1,1.214-1.3A1.172,1.172,0,0,1-232.054-82.052Zm27.336-78.656a1.2,1.2,0,0,1,1.351-1.184,1.193,1.193,0,0,1,1.231,1.322A1.189,1.189,0,0,1-203.6-159.3,1.17,1.17,0,0,1-204.718-160.708ZM-161.683,40.36c-.183.736-.563,1.218-1.27,1.165a1.117,1.117,0,0,1-1.128-1.371,1.113,1.113,0,0,1,1.309-1A1.257,1.257,0,0,1-161.683,40.36ZM26.513-117.28a1.116,1.116,0,0,1-1.263,1.249,1.113,1.113,0,0,1-1.107-1.212c.01-.723.535-1.023,1.064-1.194C26-118.338,26.49-117.973,26.513-117.28ZM-72.851-207.4a1.111,1.111,0,0,1,1.251-1.048,1.134,1.134,0,0,1,1.141,1.357,1.19,1.19,0,0,1-1.273,1.07A1.19,1.19,0,0,1-72.851-207.4Zm87.628,66.09A1.091,1.091,0,0,1,15.87-142.5c.694-.044,1.062.444,1.226,1.1a1.2,1.2,0,0,1-1.126,1.187A1.092,1.092,0,0,1,14.777-141.306ZM-84.36-207.962a1.136,1.136,0,0,1,1.148-1.343,1.141,1.141,0,0,1,1.345,1.148,1.191,1.191,0,0,1-1,1.358C-83.8-206.8-84.307-207.156-84.36-207.962ZM-6.688-166.4a1.225,1.225,0,0,1,1.506-1.247,1.238,1.238,0,0,1,1.163,1.4,1.23,1.23,0,0,1-1.318,1.252A1.218,1.218,0,0,1-6.688-166.4ZM33.75-70.035a1,1,0,0,1-1.117.945,1.12,1.12,0,0,1-1.021-1.022c.1-.656.454-1.09,1.052-1.092A1.009,1.009,0,0,1,33.75-70.035ZM-204.59,1.844A1.19,1.19,0,0,1-205.7,3.177c-.887,0-1.412-.356-1.467-1.169A1.187,1.187,0,0,1-205.864.584,1.162,1.162,0,0,1-204.59,1.844Zm146.677,47.8a1,1,0,0,1-.9,1.15,1.006,1.006,0,0,1-1.208-1.037c-.029-.608.407-.956,1.019-1.087A1.093,1.093,0,0,1-57.912,49.648Zm-58.931,6.259c.012.6-.421.952-1.019,1.065a1.1,1.1,0,0,1-1.094-.992,1,1,0,0,1,.923-1.136A1.01,1.01,0,0,1-116.844,55.907Zm56.115-262a.832.832,0,0,1,.917-.867.867.867,0,0,1,.964,1.021.827.827,0,0,1-.916.866A.862.862,0,0,1-60.729-206.09ZM-234.4-58.713c-.047.667-.363.96-.924.964a.862.862,0,0,1-.966-1.019.828.828,0,0,1,.917-.866A.848.848,0,0,1-234.4-58.713ZM3.768,8.4a.868.868,0,0,1-1.021.964.827.827,0,0,1-.866-.917A.862.862,0,0,1,2.9,7.482.832.832,0,0,1,3.768,8.4ZM-33.884,40.011a.828.828,0,0,1-.917.866.862.862,0,0,1-.965-1.02.832.832,0,0,1,.917-.867A.868.868,0,0,1-33.884,40.011ZM34.867-81.679a.867.867,0,0,1-.969,1.015.831.831,0,0,1-.913-.872.862.862,0,0,1,.97-1.014A.827.827,0,0,1,34.867-81.679Zm-251.512-68.345a.827.827,0,0,1,.914-.868.862.862,0,0,1,.967,1.017.831.831,0,0,1-.915.869A.867.867,0,0,1-216.645-150.023Zm62.609-52.694a.867.867,0,0,1,1.022-.963.828.828,0,0,1,.865.917.863.863,0,0,1-1.02.965A.832.832,0,0,1-154.036-202.717ZM-128.415,55a.867.867,0,0,1-.969,1.016.831.831,0,0,1-.912-.872.862.862,0,0,1,.97-1.014A.827.827,0,0,1-128.415,55ZM32.828-58.719c-.045.671-.36.966-.921.97a.862.862,0,0,1-.968-1.017.827.827,0,0,1,.914-.869A.847.847,0,0,1,32.828-58.719ZM-105.089,57.094a.862.862,0,0,1-1.017.968.827.827,0,0,1-.869-.914.847.847,0,0,1,.915-.975C-105.388,56.218-105.094,56.533-105.089,57.094Zm78.028-248.8a.817.817,0,0,1,.774-.838c.672.1.944.432.881.967a.774.774,0,0,1-.987.708A.758.758,0,0,1-27.061-191.706ZM31.522-47.268c-.09.706-.464.948-1.005.88a.789.789,0,0,1-.7-1.03.767.767,0,0,1,.873-.667A.8.8,0,0,1,31.522-47.268ZM-93.722,57.905a.79.79,0,0,1-.848.894c-.592-.044-.889-.356-.852-.925a.785.785,0,0,1,.967-.781A.757.757,0,0,1-93.722,57.905Z" transform="translate(153.777 117.663)" fill="#fff" opacity="0.2"/>
  </g>
</svg>
