<svg xmlns="http://www.w3.org/2000/svg" width="33.002" height="32.996" viewBox="0 0 33.002 32.996">
  <g id="package" transform="translate(0)">
    <path id="Path_780" data-name="Path 780" d="M10.066,23.8a.674.674,0,1,0,.674.674.674.674,0,0,0-.674-.674Z" fill="#eb5f21"/>
    <path id="Path_781" data-name="Path 781" d="M29.013,12.246l3.8-3.8a.645.645,0,0,0-.266-1.072L23.3,4.522a6.446,6.446,0,0,0-12.131-.485L.452,7.377A.645.645,0,0,0,.188,8.448l3.9,3.9-2.458,4.1a.645.645,0,0,0,.349.943L5.545,18.58v9.908a.645.645,0,0,0,.418.6l10.325,3.871a.642.642,0,0,0,.412.006h.006L28.3,29.1a.645.645,0,0,0,.441-.611V18.31l3.8-1.195a.645.645,0,0,0,.263-1.071Zm-5.423-5.8c0-.164-.007-.327-.019-.49l7.573,2.337-3.216,3.216L22.672,9.757a6.464,6.464,0,0,0,.917-3.312ZM12.267,4.768a5.16,5.16,0,1,1,.683,4.669,5.156,5.156,0,0,1-.683-4.669ZM1.853,8.29l8.914-2.779a6.5,6.5,0,0,0-.069.935,6.406,6.406,0,0,0,.714,2.95l-6.34,2.113Zm1.294,8.128,2.038-3.4,10.349,3.45-2.038,3.4ZM15.855,31.425,6.832,28.042V19.005c7.1,2.354,6.753,2.282,6.95,2.282a.645.645,0,0,0,.553-.313l1.52-2.534ZM16.5,15.434,6.936,12.246l5.207-1.736a6.444,6.444,0,0,0,9.711.333l4.208,1.4Zm10.957,12.59L17.144,31.461V17.95l2.285,2.856a.645.645,0,0,0,.7.212l7.331-2.3Zm-7.3-8.367-2.58-3.224,10.347-3.449,3.22,3.22Z" fill="#eb5f21"/>
    <path id="Path_782" data-name="Path 782" d="M14.2,25.239l-1.5-.562a.674.674,0,1,0-.473,1.262l1.5.562a.674.674,0,1,0,.473-1.262Z" fill="#eb5f21"/>
    <path id="Path_783" data-name="Path 783" d="M14.284,27.806,10.241,26.29a.674.674,0,1,0-.473,1.262l4.043,1.516a.674.674,0,1,0,.473-1.262Z" fill="#eb5f21"/>
    <path id="Path_784" data-name="Path 784" d="M20.946,4.242a.674.674,0,0,0-.953,0L16.426,7.809l-.871-.871a.674.674,0,1,0-.953.953L15.95,9.239a.674.674,0,0,0,.953,0L20.946,5.2a.674.674,0,0,0,0-.954Z" fill="#eb5f21"/>
  </g>
</svg>
