<svg xmlns="http://www.w3.org/2000/svg" width="28.002" height="28.004" viewBox="0 0 28.002 28.004">
  <g id="process" transform="translate(0.001 0.004)">
    <path id="Path_808" data-name="Path 808" d="M11.667,28A3.269,3.269,0,0,0,14.9,25.2h4.977l-.6.6.66.66,1.4-1.4a.466.466,0,0,0,0-.66l-1.4-1.4-.66.66.6.6H14.9a3.265,3.265,0,1,0-3.229,3.733Zm0-5.6a2.333,2.333,0,1,1-2.333,2.333A2.333,2.333,0,0,1,11.667,22.4Z" fill="#eb5f21"/>
    <path id="Path_809" data-name="Path 809" d="M24.734,28a3.267,3.267,0,1,0-3.267-3.267A3.267,3.267,0,0,0,24.734,28Zm0-5.6A2.333,2.333,0,1,1,22.4,24.733,2.333,2.333,0,0,1,24.734,22.4Z" fill="#eb5f21"/>
    <path id="Path_810" data-name="Path 810" d="M9.8,10.733a3.269,3.269,0,0,0-3.229,2.8H5.833a5.834,5.834,0,0,0,0,11.667h.973l-.6.6.66.66,1.4-1.4a.466.466,0,0,0,0-.66L6.866,23l-.66.66.6.6H5.833a4.9,4.9,0,1,1,0-9.8H6.57A3.265,3.265,0,1,0,9.8,10.733Zm0,5.6A2.333,2.333,0,1,1,12.133,14,2.333,2.333,0,0,1,9.8,16.333Z" fill="#eb5f21"/>
    <path id="Path_811" data-name="Path 811" d="M11.53,1.537l-.66.66.6.6H6.5a3.267,3.267,0,1,0,0,.933h4.977l-.6.6.66.66,1.4-1.4a.466.466,0,0,0,0-.66ZM3.267,5.6A2.333,2.333,0,1,1,5.6,3.267,2.333,2.333,0,0,1,3.267,5.6Z" fill="#eb5f21"/>
    <path id="Path_812" data-name="Path 812" d="M28,8.633A5.84,5.84,0,0,0,22.167,2.8h-2.6a3.267,3.267,0,1,0,0,.933h2.6a4.9,4.9,0,0,1,0,9.8H14.66l.6-.6-.66-.66-1.4,1.4a.466.466,0,0,0,0,.66l1.4,1.4.66-.66-.6-.6h7.507A5.84,5.84,0,0,0,28,8.633ZM16.334,5.6a2.333,2.333,0,1,1,2.333-2.333A2.333,2.333,0,0,1,16.334,5.6Z" fill="#eb5f21"/>
  </g>
</svg>
