<svg xmlns="http://www.w3.org/2000/svg" width="34.004" height="33.988" viewBox="0 0 34.004 33.988">
  <g id="Group_483" data-name="Group 483" transform="translate(0)">
    <path id="Path_785" data-name="Path 785" d="M31.091,2.544H25.567a.472.472,0,1,0,0,.943h5.524a.472.472,0,1,0,0-.943Z" fill="#eb5f21"/>
    <path id="Path_786" data-name="Path 786" d="M31.091,4.743H25.567a.472.472,0,1,0,0,.943h5.524a.472.472,0,1,0,0-.943Z" fill="#eb5f21"/>
    <path id="Path_787" data-name="Path 787" d="M33.529,3.655A.471.471,0,0,0,34,3.184V1.834A1.836,1.836,0,0,0,32.167,0H24.492a1.836,1.836,0,0,0-1.834,1.834V6.723a1.836,1.836,0,0,0,1.834,1.834.1.1,0,0,1,.1.1v2.055a.847.847,0,0,0,1.516.519L28.151,8.6a.1.1,0,0,1,.077-.038h3.941A1.836,1.836,0,0,0,34,6.725V5.387a.472.472,0,1,0-.943,0V6.723a.892.892,0,0,1-.891.891H28.228a1.034,1.034,0,0,0-.822.4l-1.872,2.413V8.654a1.041,1.041,0,0,0-1.04-1.04.892.892,0,0,1-.891-.891V1.834a.892.892,0,0,1,.891-.891h7.675a.892.892,0,0,1,.891.891v1.35a.471.471,0,0,0,.469.471Z" fill="#eb5f21"/>
    <path id="Path_788" data-name="Path 788" d="M32.773,30.38H25.515V27.854a.5.5,0,0,0-1,0V30.38H15.161V24.2l2.089-.288a.986.986,0,0,0,.817-.721l.239-.883.482.082a.991.991,0,0,0,1.133-.793l.392-2.09a11.6,11.6,0,0,1,2.264.642,3.292,3.292,0,0,1,1.942,3v2.36a.5.5,0,0,0,1,0v-2.36a4.294,4.294,0,0,0-2.533-3.918,13.413,13.413,0,0,0-2.821-.777,7.941,7.941,0,0,0-2.253-1.929,1.189,1.189,0,0,0,.515-.921,4.946,4.946,0,0,0,1.51-3.07,1.374,1.374,0,0,0,1.231-1.367V10.2A1.37,1.37,0,0,0,20.7,9.164V6.724a4.175,4.175,0,0,0-4.161-4.18H12.757a2.08,2.08,0,0,0-1.961,1.4.079.079,0,0,1-.076.05,2.1,2.1,0,0,0-2.09,2.1V9.169A1.37,1.37,0,0,0,8.161,10.2v.968a1.374,1.374,0,0,0,1.231,1.367,4.944,4.944,0,0,0,1.51,3.07,1.189,1.189,0,0,0,.515.921,8.15,8.15,0,0,0-2.253,1.929,13.413,13.413,0,0,0-2.821.777,4.258,4.258,0,0,0-2.271,2.443h-.2a.944.944,0,0,0-.941.945V23.4a.946.946,0,0,0,.626.89v.7a.062.062,0,0,1-.006.027l-2.626,5.4A1.232,1.232,0,0,0,0,31.613v1.145a1.231,1.231,0,0,0,1.227,1.23H32.773A1.231,1.231,0,0,0,34,32.757V31.613a1.231,1.231,0,0,0-1.227-1.232ZM17.429,15.548a.182.182,0,0,1-.07.145,4.389,4.389,0,0,1-5.391,0,.182.182,0,0,1-.07-.145V13.506a.045.045,0,0,1,.045-.045h5.441a.045.045,0,0,1,.045.045Zm-5.365,3.23a1.288,1.288,0,0,0,.389-.92v-.719a5.3,5.3,0,0,0,4.42,0v.719a1.288,1.288,0,0,0,.389.92.021.021,0,0,1,0,.029c-.03.038.135-.213-2.6,4.035-2.738-4.248-2.573-4-2.6-4.035a.022.022,0,0,1,0-.029Zm7.222.165a.325.325,0,0,1,.07.268l-.41,2.19-.482-.082a.981.981,0,0,0-1.116.716l-.24.886-1.436.2,2.39-3.708a1.021,1.021,0,0,0-.107-1.352c-.121-.117-.075-.276-.085-.367a6.206,6.206,0,0,1,1.416,1.252ZM9.627,6.088a1.1,1.1,0,0,1,1.094-1.1,1.076,1.076,0,0,0,1.016-.721,1.082,1.082,0,0,1,1.021-.728h3.777A3.176,3.176,0,0,1,19.7,6.724v2.3a3.662,3.662,0,0,0-.648.248v-1.7a1.876,1.876,0,0,0-1.87-1.878h-.016c-.771,0-1.033.31-1.925.31H14.086c-.85,0-1.186-.31-1.925-.31h-.016a1.876,1.876,0,0,0-1.87,1.878v1.57a2.818,2.818,0,0,0-.648-.179V6.088Zm.745,6.225a.842.842,0,0,0-.842-.774.373.373,0,0,1-.372-.373V10.2a.372.372,0,0,1,.116-.27,1.539,1.539,0,0,1,.882.3.655.655,0,0,0,1.115-.467V7.575a.877.877,0,0,1,.874-.878h.016a16.645,16.645,0,0,0,1.925.31H15.24a16.842,16.842,0,0,0,1.925-.31h.016a.877.877,0,0,1,.874.878V9.621a.8.8,0,0,0,1.22.669,2.681,2.681,0,0,1,.8-.329.372.372,0,0,1,.09.242v.968a.373.373,0,0,1-.372.373.842.842,0,0,0-.842.774,4.094,4.094,0,0,1-.529,1.7v-.507a1.045,1.045,0,0,0-1.041-1.046H11.943A1.045,1.045,0,0,0,10.9,13.506v.508a4.1,4.1,0,0,1-.529-1.7Zm1.085,5.375c-.009.091.036.249-.085.367a1.021,1.021,0,0,0-.107,1.352l2.39,3.708-1.436-.2-.24-.886a.982.982,0,0,0-1.116-.716l-.482.082-.41-2.19a.325.325,0,0,1,.069-.268,6.2,6.2,0,0,1,1.417-1.249ZM6.749,20.149a11.6,11.6,0,0,1,2.264-.642L9.4,21.6a.991.991,0,0,0,1.133.793l.483-.082.239.883a.986.986,0,0,0,.817.721l2.089.288v6.181H9.913L7.307,25.018a.061.061,0,0,1-.007-.03v-.7a.946.946,0,0,0,.626-.89v-.774a.944.944,0,0,0-.941-.945H5.156A3.263,3.263,0,0,1,6.749,20.15ZM4.555,24.988v-.65H6.3v.65a1.072,1.072,0,0,0,.107.466l.777,1.6a.3.3,0,0,1-.109.014c-.214,0-.323-.2-.825-.2s-.61.2-.825.2-.323-.2-.825-.2c-.57,0-.676.282-.934.191l.777-1.6a1.072,1.072,0,0,0,.112-.471ZM3.232,27.957A1.8,1.8,0,0,0,4.6,27.866c.214,0,.323.2.825.2s.613-.2.825-.2.323.2.825.2a1.248,1.248,0,0,0,.547-.114L8.8,30.375H2.054Zm.7-5.279h3v.662h-3ZM33,32.757a.231.231,0,0,1-.231.232H1.227A.231.231,0,0,1,1,32.757V31.613a.231.231,0,0,1,.231-.232H32.773a.231.231,0,0,1,.231.232v1.145Z" fill="#eb5f21"/>
    <path id="Path_789" data-name="Path 789" d="M18.631,25.2a.81.81,0,0,0-.809.809v1.531a.81.81,0,0,0,.809.809H21.97a.81.81,0,0,0,.809-.809V26.008a.81.81,0,0,0-.809-.809Zm3.2,2.206H18.765v-1.26h3.072Z" fill="#eb5f21"/>
  </g>
</svg>
