<svg xmlns="http://www.w3.org/2000/svg" width="33" height="28.552" viewBox="0 0 33 28.552">
  <g id="Line_stroke_cut_Ex" data-name="Line stroke cut Ex" transform="translate(0)">
    <g id="Group_484" data-name="Group 484">
      <path id="Path_790" data-name="Path 790" d="M33,7.995V4.236a1.247,1.247,0,0,0-1.238-1.253H12.237A1.247,1.247,0,0,0,11,4.236v.975H9.718a1.231,1.231,0,0,0-1.03.558l-1.841,2.8a2.615,2.615,0,0,0-1.86,1.077L3.955,11.083l.89.655L5.877,10.3A1.511,1.511,0,0,1,7.1,9.67H11v5.012H2.73L4.3,12.5l-.89-.655L1.292,14.783A1.951,1.951,0,0,0,0,16.627v6.822A1.247,1.247,0,0,0,1.238,24.7H2.2a3.85,3.85,0,1,0,7.7,0H23.1a3.85,3.85,0,1,0,7.7,0h.962A1.247,1.247,0,0,0,33,23.449V9.109H31.9v9.467H12.1V4.236a.138.138,0,0,1,.137-.139H31.762a.138.138,0,0,1,.137.139V7.995ZM8.178,8.552,9.6,6.383a.137.137,0,0,1,.114-.062H11V8.549ZM1.1,16.627a.831.831,0,0,1,.825-.835H2.75V18.3a.831.831,0,0,1-.825.835H1.1ZM6.05,27.483A2.785,2.785,0,1,1,8.8,24.7a2.785,2.785,0,0,1-2.75,2.784Zm3.69-3.9a3.837,3.837,0,0,0-7.38,0H1.237a.138.138,0,0,1-.137-.139v-3.2h.825A1.939,1.939,0,0,0,3.85,18.3V15.789H11v7.8Zm17.21,3.9A2.785,2.785,0,1,1,29.7,24.7a2.785,2.785,0,0,1-2.75,2.784Zm4.95-7.8v3.759a.138.138,0,0,1-.137.139H30.64a3.837,3.837,0,0,0-7.38,0H12.1v-3.9Z" fill="#eb5f21"/>
      <path id="Path_791" data-name="Path 791" d="M7.753,17.115H9.742v.994H7.753Z" fill="#eb5f21"/>
      <path id="Path_792" data-name="Path 792" d="M22.474,5.926a.5.5,0,0,0-.4,0L17.605,7.919a.5.5,0,0,0-.289.531l.373,2.365v.012a8.138,8.138,0,0,0,3.211,5.1l1.084.8a.5.5,0,0,0,.587,0l1.033-.751a8.135,8.135,0,0,0,3.252-5.134V10.83l.376-2.384a.5.5,0,0,0-.289-.532Zm3.4,4.748a7.146,7.146,0,0,1-2.858,4.5l-.738.537-.791-.583a7.147,7.147,0,0,1-2.821-4.475L18.354,8.67l3.918-1.747L26.19,8.67Z" fill="#eb5f21"/>
      <path id="Path_793" data-name="Path 793" d="M20.506,10.6l-.7.7L21.3,12.795a.5.5,0,0,0,.7,0l2.983-2.983-.7-.7-2.632,2.632Z" fill="#eb5f21"/>
      <path id="Path_794" data-name="Path 794" d="M13.244,5.521h.994v.994h-.994Z" fill="#eb5f21"/>
      <path id="Path_795" data-name="Path 795" d="M13.244,16.563h.994v.994h-.994Z" fill="#eb5f21"/>
      <path id="Path_796" data-name="Path 796" d="M30.017,5.521h.994v.994h-.994Z" fill="#eb5f21"/>
      <path id="Path_797" data-name="Path 797" d="M30.017,16.563h.994v.994h-.994Z" fill="#eb5f21"/>
      <path id="Path_798" data-name="Path 798" d="M5.47,23.628A1.492,1.492,0,1,0,6.962,25.12,1.492,1.492,0,0,0,5.47,23.628Zm0,1.989a.5.5,0,1,1,.5-.5A.5.5,0,0,1,5.47,25.617Z" fill="#eb5f21"/>
      <path id="Path_799" data-name="Path 799" d="M27.531,23.628a1.492,1.492,0,1,0,1.492,1.492A1.492,1.492,0,0,0,27.531,23.628Zm0,1.989a.5.5,0,1,1,.5-.5A.5.5,0,0,1,27.531,25.617Z" fill="#eb5f21"/>
      <path id="Path_800" data-name="Path 800" d="M0,5.521H3.978v.994H0Z" fill="#eb5f21"/>
      <path id="Path_801" data-name="Path 801" d="M5.518,5.521h.994v.994H5.518Z" fill="#eb5f21"/>
      <path id="Path_802" data-name="Path 802" d="M5.123,0h7.955V.994H5.123Z" fill="#eb5f21"/>
      <path id="Path_803" data-name="Path 803" d="M14.9,0h.994V.994H14.9Z" fill="#eb5f21"/>
      <path id="Path_804" data-name="Path 804" d="M21.067.994h7.955v.994H21.067Z" fill="#eb5f21"/>
      <path id="Path_805" data-name="Path 805" d="M30.017.994h.994v.994h-.994Z" fill="#eb5f21"/>
    </g>
    <g id="Group_485" data-name="Group 485">
      <path id="Path_806" data-name="Path 806" d="M11.031,26.611h8.95V27.6h-8.95Z" fill="#eb5f21"/>
      <path id="Path_807" data-name="Path 807" d="M20.975,26.611h.994V27.6h-.994Z" fill="#eb5f21"/>
    </g>
  </g>
</svg>
